<svg xmlns="http://www.w3.org/2000/svg" viewBox="0 0 569.97 1170"><defs><style>.cls-1{fill:none;stroke:#22b573;stroke-miterlimit:10;stroke-width:20px;}.cls-2{fill:#22b573;}</style></defs><g id="Layer_2" data-name="Layer 2"><g id="Layer_1-2" data-name="Layer 1"><line class="cls-1" x1="559.97" x2="559.97" y2="1170"/><path class="cls-2" d="M560,964a46.3,46.3,0,0,1-1.61-6.65,64.51,64.51,0,0,1,1.61-28v-27c-.41.45-.83.91-1.24,1.34.39-2.2.8-4.39,1.24-6.59V855.71a277.94,277.94,0,0,0-15,56.1c-2.82-5.26-4.47-9.8-9.8-11.21-5.49-1.45-10.26.36-14.83,2.68-12.58,6.39-22.44,15.92-30.48,27.42a3.66,3.66,0,0,1-1.22,1.19c19.51-42.89,42-84,71.3-121V802A607.83,607.83,0,0,0,474.92,930.1c-8-11-11.72-12-28.7-7.26.46-1.78.73-3.32,1.25-4.76,18-49.62,42.72-95.46,76.06-136.54,10.2-12.56,22.62-22.3,36.44-30.21v-13a351.72,351.72,0,0,0-48.57,32.32c-19,15.34-36.83,32.18-55.16,48.37-12.7,11.22-25.36,22.48-38.46,34.09.9-10.32,2.33-19.7,2.4-29.1.1-13.29-4-17.72-17.75-20.52,4.36-3.42,8.16-6.55,12.12-9.48,41-30.28,83.51-58,130-79.21q7.63-3.48,15.39-6.59v-8.76a491.56,491.56,0,0,0-54.47,26.53c-31.92,17.93-62.92,37.34-93.44,58.17,2.63-5.93,5.17-11.9,7.9-17.78,5.34-11.52,8.12-23.56,7.15-36.28-.31-4,1.07-6.59,4.11-9.32,20.43-18.37,42.64-34,67.82-45.2,17.14-7.64,35.16-12,53.71-14.33,2.4-.31,4.81-.58,7.22-.85v-9c-36.44,1.86-71,12-103.87,28.11-2.82,1.38-5.5,3.07-8.69,4.87,3.14-17.23,2-33.66-4.83-50.05a24.59,24.59,0,0,1,12.68-9.15c11.5-3.64,23.08-7.27,34.88-9.73a174.83,174.83,0,0,1,52.59-3.17q8.63.84,17.24,2v-15a358.53,358.53,0,0,0-45.07-.18c-23.15,1.35-45.65,6.42-67.53,14.15a24.13,24.13,0,0,1-5.57,1.36c9.4-7.3,19.74-12.86,30.5-17.69a191.22,191.22,0,0,1,55.94-15.53,142.64,142.64,0,0,1,31.73.09v-9.87c-10.38-.51-20.79-1.28-31.09-.57-41.36,2.82-79.19,15.09-110,44.32-3.75,3.56-8.4,3-12.63,3.39a216.76,216.76,0,0,1-80.79-8.8c-1.21-.37-2.41-.81-4-1.36,9.59-9,20.44-14.88,32.06-19.58,17.83-7.21,36.57-10.82,55.44-13.7,15.42-2.35,30.89-4.75,46.43-5.89,19.25-1.41,38.58-1.83,57.88-2.15,15.57-.27,31.15,0,46.72.14v-9.65c-8.84-.09-17.68-.15-26.5.21q-32.16,1.32-64.27,3.81c-16.9,1.29-33.77,3.11-50.6,5.14-30.18,3.65-60.4,7.53-88.71,19.44-8.65,3.64-16.48,9.22-24.75,13.8-1.25.69-3.15,1.44-4.27,1a204.38,204.38,0,0,1-48.51-27.81,117.49,117.49,0,0,1,31.75-18.12c17.41-6.8,35.54-10.63,54-13.11a491.12,491.12,0,0,1,83.7-3.77c15.94.6,31.85,2.26,47.76,3.58,30,2.5,60.09,4.81,90.27,3.15H560V502c-1.5-.67-2.86-1.29-4-1.76l4,0V475c-18.47-2.72-35.93-9-53.23-15.8-53.13-20.9-106.36-41.52-161.16-57.81q-70.36-20.91-141.81-37.72a138.44,138.44,0,0,1-26.94-9.95c-4.25-2-7.85-6.12-10.79-10a173,173,0,0,1-12.41-19.29c-1.14-2-1.68-5.81-.55-7.24s4.89-2.06,7.25-1.66c41,7,81.87,15.11,121.71,27.57a638.11,638.11,0,0,1,83.44,32.69c54.94,26.11,109.75,52.47,164.65,78.66,9.9,4.72,19.88,9.29,29.84,13.87V454c-2.08-.85-4.15-1.71-6.2-2.61-29.68-13-59.27-26.12-88.92-39.15-44.7-19.66-89.21-39.76-134.2-58.74-36.39-15.35-73.77-28.15-112.31-37.16-17.44-4.08-34.88-8.33-52.52-11.31-16.1-2.71-27.67-11.22-36.72-24.11-3.2-4.56-6.37-9.15-9.55-13.73l.81-1.42c3.74-.13,7.51-.64,11.21-.31,26.86,2.34,53,8.73,79.34,14.08,49.55,10.06,96.43,28.13,143.09,47,28.64,11.58,57.62,22.45,84.82,37.16,16.5,8.92,32.38,19,48.13,29.27,24.46,15.89,48.7,32.11,73,48.22V425.94q-9.48-6-18.93-12c-44.74-28.54-89.78-56.58-136.21-82.32-74.05-41.06-151.11-75.14-232.68-98.27-27.74-7.86-56-13.74-84-20.67a16.91,16.91,0,0,1-7-3.52c-9-8-17.65-16.26-23.92-26.64a55.44,55.44,0,0,1-3.06-6.24c-3.93-8.87,4.18-14.27,11.08-13q10.76,2,21.38,4.63c79.7,19.6,155.88,48.79,229.61,84.57,65,31.54,126.49,68.83,183.86,112.79Q531.17,389.1,560,415.69V388.85c-9.06-6.9-17.65-13.46-26.32-19.91-19.61-14.58-39.75-28.49-58.84-43.73-24.87-19.86-48.06-41.66-68-66.56A80.3,80.3,0,0,1,396,239.78c-2.52-5.95.49-10,7-9.77a67.39,67.39,0,0,1,16.55,2.9c18,5.29,33.56,14.78,47.88,26.82,21.82,18.33,43.18,37.15,62.16,58.43,5.22,5.86,9.29,13,12.72,20.13,6.13,12.74,11.9,25.65,17.67,38.57V319.14Q551.21,309,542.1,299.19A768.7,768.7,0,0,0,457,219.91c-30.31-24.11-63-44.51-97-62.8C290.06,119.51,216.81,91,138.17,77.63,107,72.34,75.76,69.3,44.32,74,34.57,75.5,25,78.61,15.64,81.94,6.89,85.06,1.88,91.87.47,101.34c-1.5,10,.82,19.52,3.93,28.84,7.22,21.61,18.42,41.28,31,60.07,17.92,26.65,36.32,53,54.64,79.36,27.4,39.41,50.44,80.89,63.09,127.64,3.82,14.11,9.59,27.62,18.27,39.67.81,1.12.66,3.39.21,4.91a96.56,96.56,0,0,0-2.54,43.49c5.79,34,21.87,62.85,47.09,85.93a376.36,376.36,0,0,0,72.07,51.63c22.63,12.52,46.9,19.43,72.94,19.13a131.11,131.11,0,0,0,14.93-1.16c4.89-.6,9.74-1.61,15.57-2.61l-2.53,1.62c-24,15-44.53,33.29-56.91,59.35-8,16.89-11.32,34.62-8.76,53.34a12.1,12.1,0,0,1-1.72,7c-6.76,12.09-12.57,24.56-15.35,38.22-4.15,20.3-2.62,39.41,12.09,55.69.75.83.86,2.66.62,3.9-1.77,9.26-4.29,18.43-5.46,27.76-2,15.86.89,31.09,7.83,45.55,4.63,9.65,11.63,17.29,20.09,23.69-.82,2.77-1.53,5.32-2.32,7.84-6.34,20.24-14.62,40-17,61.26-1.75,15.39.67,29.89,10.32,42.53,3.91,5.11,8.49,9.24,15.31,10.3,11.47,1.77,20-2.65,26.78-11.64,7.1-9.48,10.47-20.7,14.93-31.43,3.21-7.7,6.41-9.23,13.88-5.2,6.41,3.45,12.25,8,18.46,11.8,5.5,3.42,10.93,7.08,16.79,9.74,8.83,4,16.09,1.1,19.4-7.73,1.48-4,3.7-4.66,7.1-4.07,9.15,1.6,18.34,3,27.41,5,17.12,3.76,31.09-.82,40.85-15.57a185,185,0,0,0,12.36-22.7c2.73-5.72,4.5-11.89,6.65-17.73,2.61,1.87,5,3.84,7.48,5.54ZM390.05,262.75c16.65,15.34,33.53,30.41,50.33,45.58,1.05.95,2.2,1.78,3.3,2.67l-.72.87c-3-1.93-6-3.84-9-5.8C355.75,254.78,271.37,216.68,182.19,189c-33.56-10.42-67.32-20.21-101-30.16a19.84,19.84,0,0,1-10.24-6.58c-4.78-5.85-9.21-11.88-9.86-19.73-.61-7.44,2.85-11.65,10.38-11.23,11.75.66,23.61,1.31,35.15,3.43,42.67,7.85,83.15,22.89,123.23,39a1096.33,1096.33,0,0,1,121.73,57.13c5.67,3.14,11.37,6.28,16.77,9.85a14.07,14.07,0,0,1,4.7,5.94C377.2,246.32,382.22,255.54,390.05,262.75ZM92.34,104c1.14-2.92,3.45-5.29,7.28-4.82,6.93.86,13.89,1.44,20.78,2.51,75.92,11.8,146,40.29,213.9,75,16,8.17,31.62,17,47.4,25.59,1.59.87,3.07,2,4.65,3a118.28,118.28,0,0,1-10.69,5.7c-1.34.56-3.47.07-4.92-.62-16.05-7.65-31.93-15.67-48.06-23.14-49.89-23.1-100.51-44.34-153.4-59.75a442.12,442.12,0,0,0-63.17-13.59c-3.36-.47-6.65-2-9.8-3.33C93.61,109.38,91.06,107.26,92.34,104ZM44.63,140.68c-5.51-4.39-10.15-8.81-13-14.8-3.35-7.12-1.6-13.16,4.88-17.9s13.84-6.51,21.39-7.63c7.71-1.14,15.54-1.44,23.32-2.11.37,5,.71,9.64,1.09,14.83-3.81.56-8.18.66-12.18,1.92a73.91,73.91,0,0,0-15.92,6.69C47.61,125.65,45.77,132.81,44.63,140.68Zm49.85,88.74,1.14-2c10.21,1.06,20.5,1.66,30.63,3.25,49.23,7.75,95.77,24.42,141.19,44.24,27.22,11.88,53.84,25.17,80.72,37.84a6.69,6.69,0,0,1,2.7,2.09c-8.7-3.08-17.39-6.19-26.1-9.26-35.36-12.46-70.85-24.58-107.44-33-13.71-3.14-27.82-4.58-41.75-6.79-18.87-3-37.72-6.27-55.29-14.07a88,88,0,0,1-18.78-11.92C98.37,237.35,96.77,233,94.48,229.42ZM178,385.26c5.88,0,11.31-.45,16.64.09,14.2,1.42,28.45,2.74,42.52,5.07,24.7,4.09,49.27,8.91,73.9,13.42,26.69,4.89,52.47,13.06,77.89,22.28q47,17.06,93.7,35c15.79,6.06,31.24,13,46.91,19.35,3.35,1.36,7,2,10.33,2.95-5.91.85-12.13,1.83-18.38,2.6a12.87,12.87,0,0,1-5.24-.43c-33.69-10.62-67.71-20.13-102.36-27-25-5-50.22-9.33-75.52-12.68-23-3.05-46.28-4.84-69.48-6.29a175.48,175.48,0,0,0-53,4.6c-4,1-6.56.14-9.34-2.41-9.42-8.65-15.68-19.25-19.78-31.26C184,402.42,181.15,394.31,178,385.26Zm25.72,120.93c-3.12-10-3.09-20-2.24-30,.4-4.77,1.82-9.44,2.69-14.17.6-3.23,2.31-5,5.58-6,21.19-6.74,43-8.4,65-8.08,56,.8,110.74,10.34,164.5,25.61,25.05,7.12,49.88,15,74.81,22.54,4.39,1.33,8.23,3.28,10.95,7.21,1.87,2.7,4.2,5.09,6.19,7.45-15.86-1.85-32.18-3.8-48.52-5.66-15.85-1.8-31.72-3.49-47.57-5.27-16-1.8-32-3.73-48.05-5.46-14.87-1.61-29.76-3.09-44.65-4.53-13.07-1.26-26.15-2.53-39.25-3.53-22.07-1.68-44.18-3.42-66.12,1.39C222,491,214.69,495.1,203.72,506.19Zm16.37,34.62a47.62,47.62,0,0,1-3.1-4.53c-4.88-7.44-4.87-7.44.87-14.55,9.56-11.85,22.72-17.73,36.89-21.42a188.85,188.85,0,0,1,64.33-5.39c16.4,1.42,32.84,2.46,49.19,4.36,21.44,2.49,42.81,5.65,64.21,8.54,20.41,2.77,40.8,5.64,61.22,8.32,14.48,1.9,29,3.56,43.5,5.34,3.26.4,7.11-.06,9.63,1.54,4.55,2.9,8.3,7.06,12.39,10.69l-.43,1.68c-17.78.24-35.57.9-53.34.63-24-.37-47.94-1.6-71.92-2.21-29.47-.74-58.94-1.68-88.41-1.63-18.77,0-37.56,1.19-56,5.44S253.7,549,238.74,562.78C232.46,555.39,226.24,548.13,220.09,540.81ZM515,779.09ZM408.64,881.78a35.81,35.81,0,0,1,5.36-8.91c29-35.86,63-66.29,100.22-93.26-14,22.11-28.49,44.19-42,66.88-13.68,23-26.34,46.52-39.5,69.92-.81-3-1.46-6-2.5-9-2.82-8-7.67-13.77-16.46-15.68C408.83,890.68,406.71,886.57,408.64,881.78ZM384.07,670.16c9.89-8.51,20.57-15.8,33.38-19.34,10.52-2.9,13.93-.64,14.26,10a90.74,90.74,0,0,1-6.25,36.09,32.59,32.59,0,0,1-2.77,5.3c-3.78,6-4.52,6.18-10.66,3-9.28-4.86-18.9-4.49-28.59-1.56-10.82,3.27-20.19,9.2-29,16.11-2,1.53-3.89,3.1-5.83,4.65C355.48,702.74,367.2,684.69,384.07,670.16Zm-52.7,145.37a53.57,53.57,0,0,1,4.94-30.09c9.25-19.71,23.26-35.05,42.4-45.57a50.22,50.22,0,0,1,5.85-2.74c11.17-4.41,18.32.57,18.26,12.53-.05,13.48-5.72,25.18-11.85,36.59-10.36,19.3-26.72,33.35-42.86,47.53-3.36,3-6.67,6-11,9.86C335,833.66,332.58,824.68,331.37,815.53ZM345,925.34c-6.65-5.68-8.85-13.3-8.49-21.47.86-19.53,5.78-38,16.17-54.75,2.84-4.57,6.76-8.56,10.63-12.37,5-4.89,10.44-9.27,15.61-14,4.15-3.78,9.16-5.33,14.56-5.59,7.46-.36,11.08,3.16,11.3,10.59,0,.84,0,1.67,0,2.5l.73.17c-1.42,5.93-2.4,12-4.32,17.78-8.39,25.19-20.69,48.51-34.91,70.83a27.1,27.1,0,0,1-7.7,7.61C353.62,930,349.65,929.28,345,925.34Zm26.71,90.73c-2.91,3.61-6.24,6.9-9.43,10.29a19.1,19.1,0,0,1-3.1,1.9c0-7.55-.6-14.21.13-20.71,1.56-14,3-28.1,5.95-41.86,4.48-21.12,13.79-40.14,28.81-56a39.44,39.44,0,0,1,9.51-7.14c5.45-3,10.75-1.52,13.58,4,5,9.74,6.1,20.31,2.1,30.4C407.82,965.88,391.25,991.89,371.75,1016.07Zm94.77-44.31c-7,18.45-14.8,36.6-22.59,55.67-2.21-1.62-4.4-3-6.3-4.68-2.73-2.44-5.24-5.12-7.85-7.69-8.08-8-17.6-11-28.76-8.44a21.71,21.71,0,0,1-3.39,0c.61-3.12.68-5.94,1.71-8.36,6.75-15.87,16.6-29.88,26.68-43.75,5.41-7.43,11.72-13.65,20.48-16.85a38.25,38.25,0,0,1,10.09-2.45c7-.52,9.75,1.68,11.21,8.48C469.83,953.15,469.92,962.79,466.52,971.76Zm61.13,38.43c-4,8.72-10.24,15.51-20.62,16.94-7.72,1.06-14.31-1.8-19.59-6.74-5.79-5.41-10.7-11.77-15.84-17.84a4.47,4.47,0,0,1-.66-3.57c5.34-18.45,10.05-37.16,20.2-53.78a82.85,82.85,0,0,1,25.76-26c13.62-9,23.12-4.69,25.75,11.46.8,4.9,1,9.9,1.4,14C543.1,968.25,537.06,989.7,527.65,1010.19Z"/></g></g></svg>