<svg xmlns="http://www.w3.org/2000/svg" viewBox="0 0 1920 1080"><defs><style>.cls-1{fill:none;}.cls-2{fill:#292929;}</style></defs><g id="Layer_2" data-name="Layer 2"><g id="Layer_1-2" data-name="Layer 1"><rect class="cls-1" width="1920" height="1080"/><path class="cls-2" d="M941.36,672.85H996V657.32H941.36Zm-87-72.23h51.69V589.36H854.38Zm350.51,72.23h49.78l2.32-15.53h-49.61Zm-551.8,0h54.67V657.32H653.09Zm173-5.11c-10.1,0-18-3-22.89-10.42H745.57a95.07,95.07,0,0,0,4.52,15.53H899a95.07,95.07,0,0,0,4.52-15.53H848.94C844.07,664.71,836.15,667.74,826.05,667.74Zm-290.26-3.48H505v-6.94H450.3v15.53h160a87.72,87.72,0,0,0,5-15.53H555.62C550.87,662.19,544.13,664.26,535.79,664.26Zm844.82-6.94H1326l2.32,15.53h54.75Zm-303.56,15.53h54.67V657.32h-54.67Zm0-72.23h54.67V589.36h-54.67Zm-135.69,0H996V589.36H941.36Zm325.69-11.26h-48.8l-1.8,11.26h48.92ZM505,633.24H450.3v15.53H505Zm871.78,0H1211.23l-2.48,15.53h170.49Zm-3.85-24.07H1215.08l-2.48,15.53h162.79ZM941.36,624.7H996V609.17H941.36ZM653.09,648.77h54.67V633.24H653.09Zm144.63-14.83v-.7H743.07a141.21,141.21,0,0,0,1.09,15.53h55.28A57,57,0,0,1,797.72,633.94Zm56.66,0a57,57,0,0,1-1.72,14.83H905a141.21,141.21,0,0,0,1.09-15.53H854.38ZM1415,366V506.27h54.68V366ZM560.87,648.77h56a136.5,136.5,0,0,0,1.34-15.53H563.58A49,49,0,0,1,560.87,648.77Zm380.49,0H996V633.24H941.36ZM563.63,624.7H618.3V609.17H563.63ZM505,609.17H450.3V624.7H505Zm349.4,15.53h51.69V609.17H854.38Zm-56.66-15.53H743.05V624.7h54.67ZM653.09,624.7h54.67V609.17H653.09Zm424,0h54.67V609.17h-54.67Zm0,24.07h54.67V633.24h-54.67ZM797.72,589.36H743.05v11.26h54.67Zm519.44,11.26h54.38l-1.8-11.26h-54.27ZM536.79,366H450.3V506.27H505V415.74h30.81c17.4,0,27.84,8.95,27.84,33.8v56.73H618.3V452C618.3,396.36,591.46,366,536.79,366ZM653.09,714h54.67v-8.49H653.09Zm0-207.69h54.67V366H653.09ZM450.3,714h86.49c16.84,0,31-2.88,42.63-8.49H450.3Zm569.59-298.22h57.16v90.53h54.67V415.74h57.16V366h-169ZM824.56,362.06c-53.68,0-81.51,31.81-81.51,87.48v56.73h54.67V446.06c0-24.85,10.93-34.29,28.33-34.29s28.33,9.44,28.33,34.29v37.28h51.69v-33.8C906.07,393.87,878.24,362.06,824.56,362.06Zm466.7,65.61,11.77,78.6h53.41L1334,366h-80l-22.43,140.23h47.94Zm-349.9,78.6H996V366H941.36Zm391.87,199.2,1.27,8.49h55.17l-1.35-8.49ZM1198.32,714h50.2l1.27-8.49h-50.11Zm-373.76,4c19.7,0,35.92-4.29,48.56-12.47H776C788.64,713.65,804.85,717.94,824.56,717.94ZM1415,714h103v-8.49H1415Zm-473.66,0H996v-8.49H941.36Zm135.69,0h54.67v-8.49h-54.67Zm307.41-32.57h-54.83l2.32,15.53h55Zm-307.41,15.53h54.67V681.39h-54.67Zm-424,0h54.67V681.39H653.09ZM1415,600.62h54.68V589.36H1415Zm-649.57,96.3H883.67a66.33,66.33,0,0,0,11.42-15.53H754A66.33,66.33,0,0,0,765.45,696.92Zm-315.15,0H592.7a61.71,61.71,0,0,0,13.21-15.53H450.3Zm113.33-96.3H618.3V589.36H563.63ZM505,589.36H450.3v11.26H505ZM941.36,696.92H996V681.39H941.36ZM1415,672.85h54.68V657.32H1415Zm0-24.08h54.68V633.24H1415Zm-214,48.15h50l2.32-15.53h-49.86Zm214-72.22h54.68V609.17H1415Zm0,72.22h103V681.39H1415Zm-761.93-96.3h54.67V589.36H653.09Z"/><path class="cls-2" d="M471.72,314.3v5.92c0,7.27-3.51,11.24-10.66,11.24h-3.38v17.08h-7.15V303.06h10.53C468.21,303.06,471.72,307,471.72,314.3Zm-14,10.66h3.38c2.27,0,3.51-1,3.51-4.29v-6.82c0-3.25-1.24-4.29-3.51-4.29h-3.38Z"/><path class="cls-2" d="M477,348.54h-6.88v-6.88H477Z"/><path class="cls-2" d="M499.46,303.06v45.48h-7.15V303.06Z"/><path class="cls-2" d="M511.8,303.06v45.48h-7.14V303.06Z"/></g></g></svg>