<svg xmlns="http://www.w3.org/2000/svg" viewBox="0 0 793.25 1189.88"><defs><style>.cls-1{fill:none;}.cls-2{fill:#999;}.cls-3{fill:#292929;}</style></defs><g id="Layer_2" data-name="Layer 2"><g id="Layer_1-2" data-name="Layer 1"><rect class="cls-1" width="793.25" height="1189.88"/><path class="cls-2" d="M615,566.28h54.68V550.74H615Zm-87-72.23h51.69V482.79H528ZM333.5,952.28h49.78l2.32-15.54H336Zm-6.8-386h54.67V550.74H326.7Zm173-5.12c-10.1,0-18-3-22.89-10.42H419.18a95.48,95.48,0,0,0,4.52,15.54H572.64a95.48,95.48,0,0,0,4.52-15.54H522.54C517.68,558.14,509.76,561.16,499.66,561.16ZM209.4,557.68H178.59v-6.94H123.91v15.54h160a87.83,87.83,0,0,0,5-15.54H229.23C224.48,555.62,217.74,557.68,209.4,557.68ZM509.22,936.74H454.64L457,952.28h54.75ZM209.66,952.28h54.67V936.74H209.66Zm0-72.23h54.67V868.79H209.66ZM615,494.05h54.68V482.79H615ZM395.66,868.79h-48.8l-1.8,11.26H394ZM178.59,526.67H123.91V542.2h54.68Zm326.78,386H339.84l-2.48,15.53H507.85Zm-3.85-24.08H343.69l-2.48,15.54H504ZM615,518.13h54.68V502.59H615ZM326.7,542.2h54.67V526.67H326.7Zm144.63-14.83v-.7H416.68a141.39,141.39,0,0,0,1.09,15.53h55.28A57.12,57.12,0,0,1,471.33,527.37Zm56.66,0a57.12,57.12,0,0,1-1.72,14.83h52.3a141.39,141.39,0,0,0,1.09-15.53H528Zm35.64,118.09V785.69h54.68V645.46ZM234.48,542.2h56a139,139,0,0,0,1.34-15.53H237.19A49,49,0,0,1,234.48,542.2Zm380.49,0h54.68V526.67H615ZM237.24,518.13h54.67V502.59H237.24Zm-58.65-15.54H123.91v15.54h54.68ZM528,518.13h51.69V502.59H528Zm-56.66-15.54H416.66v15.54h54.67ZM326.7,518.13h54.67V502.59H326.7Zm-117,386h54.67V888.59H209.66Zm0,24.07h54.67V912.67H209.66ZM471.33,482.79H416.66v11.26h54.67ZM445.77,880.05h54.38l-1.8-11.26H444.08ZM210.4,259.46H123.91V399.69h54.68V309.17H209.4c17.4,0,27.84,8.94,27.84,33.8v56.72h54.67V345.45C291.91,289.78,265.07,259.46,210.4,259.46ZM326.7,607.39h54.67v-8.5H326.7Zm0-207.7h54.67V259.46H326.7ZM123.91,607.39H210.4c16.84,0,31-2.88,42.63-8.5H123.91Zm-.3,87.78h86.05v90.52h54.67V695.17h57.16V645.46H123.61ZM498.17,255.49c-53.68,0-81.51,31.81-81.51,87.48v56.72h54.67v-60.2c0-24.86,10.93-34.3,28.33-34.3S528,314.63,528,339.49v37.27h51.69V343C579.68,287.3,551.85,255.49,498.17,255.49ZM419.87,707.1l11.77,78.59h53.41L462.62,645.46h-80L360.16,785.69H408.1ZM615,399.69h54.68V259.46H615ZM461.84,984.89l1.27,8.5h55.17l-1.36-8.5Zm-134.91,8.5h50.2l1.27-8.5H328.28Zm171.24-382c19.7,0,35.92-4.29,48.56-12.47H449.61C462.25,607.07,478.46,611.36,498.17,611.36Zm65.46,382h103v-8.5h-103Zm51.34-386h54.68v-8.5H615Zm-405.31,386h54.67v-8.5H209.66Zm303.41-32.57H458.24l2.32,15.53h55ZM209.66,976.35h54.67V960.82H209.66Zm117-386h54.67V574.82H326.7Zm236.93,289.7h54.68V868.79H563.63ZM439.06,590.35H557.28a66.54,66.54,0,0,0,11.42-15.53H427.63A66.86,66.86,0,0,0,439.06,590.35Zm-315.15,0h142.4a61.85,61.85,0,0,0,13.2-15.53H123.91Zm113.33-96.3h54.67V482.79H237.24Zm-58.65-11.26H123.91v11.26h54.68ZM615,590.35h54.68V574.82H615ZM563.63,952.28h54.68V936.74H563.63Zm0-24.08h54.68V912.67H563.63Zm-234,48.15h50L382,960.82H332.14Zm234-72.22h54.68V888.59H563.63Zm0,72.22h103V960.82h-103ZM326.7,494.05h54.67V482.79H326.7Z"/><path class="cls-2" d="M145.32,207.73v5.91c0,7.28-3.5,11.24-10.65,11.24h-3.38V242h-7.15V196.49h10.53C141.82,196.49,145.32,200.45,145.32,207.73Zm-14,10.65h3.38c2.27,0,3.51-1,3.51-4.28v-6.83c0-3.24-1.24-4.28-3.51-4.28h-3.38Z"/><path class="cls-2" d="M150.65,242h-6.88v-6.89h6.88Z"/><path class="cls-2" d="M173.07,196.49V242h-7.15V196.49Z"/><path class="cls-2" d="M185.41,196.49V242h-7.14V196.49Z"/><path class="cls-3" d="M130.15,459.23a23.44,23.44,0,0,1-7.52-3.24l3.76-8.45a25.7,25.7,0,0,0,13.37,4c4.4,0,6.59-1.1,6.59-3.3a2.72,2.72,0,0,0-1.88-2.57,34.67,34.67,0,0,0-6-1.77,56.94,56.94,0,0,1-7.64-2.11,12.84,12.84,0,0,1-5.27-3.62,9.72,9.72,0,0,1-2.2-6.71,11.6,11.6,0,0,1,2-6.68,13.54,13.54,0,0,1,6-4.72,24.88,24.88,0,0,1,9.87-1.74,34.67,34.67,0,0,1,7.87.9,24.36,24.36,0,0,1,6.83,2.63l-3.53,8.51a23.62,23.62,0,0,0-11.23-3.12,9.35,9.35,0,0,0-5,1,3,3,0,0,0-1.57,2.63,2.61,2.61,0,0,0,1.86,2.43,33.43,33.43,0,0,0,6,1.68,56.7,56.7,0,0,1,7.66,2.11,13.27,13.27,0,0,1,5.27,3.59,9.56,9.56,0,0,1,2.23,6.68,11.39,11.39,0,0,1-2,6.6,13.8,13.8,0,0,1-6.07,4.72,24.53,24.53,0,0,1-9.84,1.76A37.48,37.48,0,0,1,130.15,459.23Z"/><path class="cls-3" d="M167.56,455.52q-5-4.9-5-13.94V419.12H174v22.11q0,9.72,7.69,9.72t7.64-9.72V419.12h11.29v22.46q0,9-5,13.94t-14,4.92Q172.57,460.44,167.56,455.52ZM178.44,471a4.25,4.25,0,0,1-1.3-3.24,4.44,4.44,0,0,1,1.3-3.3,4.84,4.84,0,0,1,6.54,0,4.41,4.41,0,0,1,1.3,3.3A4.21,4.21,0,0,1,185,471a5,5,0,0,1-6.54,0Zm16.24-51.91h2a3,3,0,0,0,2.35-1,3.72,3.72,0,0,0,.95-2.6,5.27,5.27,0,0,0-.32-1.83,5.33,5.33,0,0,0-.83-1.53l6.36-2.26a9.34,9.34,0,0,1,2,6.08,9.66,9.66,0,0,1-2.9,7.47q-2.9,2.65-8,2.66h-1.56Z"/><path class="cls-3" d="M226.22,419.12h11.45v31.43H257v9.08H226.22Z"/><path class="cls-3" d="M294,450.78v8.85H261.52V419.12h31.77V428H272.86v6.83h18v8.56h-18v7.41Zm-11.63-34.95-5-4.4-5,4.4h-7.29l7.53-8.8h9.49l7.52,8.8Z"/><path class="cls-3" d="M339,419.12v40.51h-9.44l-17.88-21.58v21.58H300.41V419.12h9.43l17.88,21.59V419.12Z"/><path class="cls-3" d="M402.43,419.12v40.51H393l-17.88-21.58v21.58H363.89V419.12h9.43l17.88,21.59V419.12Z"/><path class="cls-3" d="M437.68,438.51H447.8v16.78a26.11,26.11,0,0,1-8,3.82,31.7,31.7,0,0,1-9,1.33,24,24,0,0,1-11.46-2.69,20,20,0,0,1-8-7.49,21.92,21.92,0,0,1,0-21.76,20,20,0,0,1,8.05-7.5A24.77,24.77,0,0,1,431,418.31a26,26,0,0,1,10.19,1.91,19.82,19.82,0,0,1,7.52,5.5l-7.29,6.6a12.86,12.86,0,0,0-9.84-4.52A10.9,10.9,0,0,0,420,439.38a12.29,12.29,0,0,0,1.44,6,10.53,10.53,0,0,0,4,4.11,11.94,11.94,0,0,0,6,1.47,14.63,14.63,0,0,0,6.2-1.33Z"/><path class="cls-3" d="M464,457.72A20.71,20.71,0,0,1,464,421a25.86,25.86,0,0,1,23.09,0,20.72,20.72,0,0,1,0,36.69,25.86,25.86,0,0,1-23.09,0Zm16.52-41.89-5-4.4-5,4.4h-7.3l7.53-8.8h9.49l7.52,8.8Zm.58,33.68a10.43,10.43,0,0,0,3.93-4.08,13.35,13.35,0,0,0,0-12.1,10.43,10.43,0,0,0-3.93-4.08,11.37,11.37,0,0,0-11.11,0,10.52,10.52,0,0,0-3.94,4.08,13.43,13.43,0,0,0,0,12.1,10.52,10.52,0,0,0,3.94,4.08,11.43,11.43,0,0,0,11.11,0Z"/><path class="cls-3" d="M504.05,419.12h11.46v40.51H504.05Z"/><path class="cls-3" d="M549.28,457.75a20.09,20.09,0,0,1-8-7.49,21.93,21.93,0,0,1,0-21.76,20.18,20.18,0,0,1,8-7.5,24,24,0,0,1,11.43-2.69,24.56,24.56,0,0,1,10,2,19.27,19.27,0,0,1,7.41,5.67l-7.29,6.6a12,12,0,0,0-9.55-4.75,11.86,11.86,0,0,0-5.88,1.45,10.11,10.11,0,0,0-4,4.08,13.6,13.6,0,0,0,0,12.1,10.11,10.11,0,0,0,4,4.08,11.86,11.86,0,0,0,5.88,1.44,12,12,0,0,0,9.55-4.74l7.29,6.59a19.29,19.29,0,0,1-7.41,5.68,24.56,24.56,0,0,1-10,2A23.87,23.87,0,0,1,549.28,457.75Z"/><path class="cls-3" d="M587.41,455.52q-5-4.9-5-13.94V419.12h11.46v22.11q0,9.72,7.69,9.72t7.64-9.72V419.12h11.29v22.46q0,9-5,13.94t-14,4.92Q592.42,460.44,587.41,455.52Zm12.88-42.47a6,6,0,0,0,2.2-1.57,2.82,2.82,0,0,0,.64-1.79,2.1,2.1,0,0,0-.73-1.71,2.85,2.85,0,0,0-1.88-.6,5.84,5.84,0,0,0-3.35,1.15l-2.26-4.28a9.77,9.77,0,0,1,3.12-1.59,12.53,12.53,0,0,1,3.71-.55,8,8,0,0,1,5.47,1.85,6.13,6.13,0,0,1,2.11,4.8q0,5.1-5.67,7.64Z"/><path class="cls-3" d="M654.52,451.76H637.39l-3.19,7.87H622.51l17.89-40.51h11.28l17.94,40.51H657.7Zm-3.36-8.45-5.21-13-5.21,13Z"/><path class="cls-3" d="M129.22,822.46H120.8v-6.15h24.57v6.15H137v21.28h-7.76Z"/><path class="cls-3" d="M174.36,816.31v27.43H166.6V833H156v10.7h-7.75V816.31H156v10.31H166.6V816.31Z"/><path class="cls-3" d="M207.78,824.44a13.58,13.58,0,0,1,1.14,5.58,13.75,13.75,0,0,1-7.43,12.43,17.52,17.52,0,0,1-15.63,0A13.71,13.71,0,0,1,178.44,830a13.72,13.72,0,0,1,2-7.32,13.89,13.89,0,0,1,5.55-5.1,17.19,17.19,0,0,1,8-1.84,35.61,35.61,0,0,1,4.35.32,24.22,24.22,0,0,0,2.66.19,3.35,3.35,0,0,0,2.16-.63,2.15,2.15,0,0,0,.78-1.8,3.74,3.74,0,0,0-.78-2.27l4.27-1.53a6.76,6.76,0,0,1,1.37,4.12,6,6,0,0,1-1.09,3.68,6.44,6.44,0,0,1-3.06,2.19A13.12,13.12,0,0,1,207.78,824.44Zm-23-16.32h7.45l5.25,6h-5.33Zm12.62,28.76a7,7,0,0,0,2.66-2.76,9,9,0,0,0,0-8.19,7,7,0,0,0-2.66-2.76,7.7,7.7,0,0,0-7.52,0,7,7,0,0,0-2.67,2.76,9,9,0,0,0,0,8.19,7,7,0,0,0,2.67,2.76,7.7,7.7,0,0,0,7.52,0Z"/><path class="cls-3" d="M213,816.31h7.76v27.43H213Z"/><path class="cls-3" d="M243.52,822.46h-8.43v-6.15h24.57v6.15h-8.39v21.28h-7.75Z"/><path class="cls-3" d="M274.55,836.45h-4.23v7.29h-7.76V816.31H275.1a15.68,15.68,0,0,1,6.46,1.23,10,10,0,0,1,4.33,14.11,9.4,9.4,0,0,1-4,3.47l5.92,8.62h-8.31Zm3.68-13a5.37,5.37,0,0,0-3.6-1.06h-4.31v8h4.31a5.43,5.43,0,0,0,3.6-1,3.68,3.68,0,0,0,1.22-3A3.75,3.75,0,0,0,278.23,823.48Z"/><path class="cls-3" d="M309.93,838.41h-11.6l-2.15,5.33h-7.92l12.11-27.43H308l12.15,27.43h-8.08Zm-2.27-5.72-3.53-8.78-3.53,8.78Z"/><path class="cls-3" d="M348.45,816.31v27.43h-6.39L330,829.12v14.62h-7.6V816.31h6.39l12.1,14.62V816.31Z"/><path class="cls-3" d="M372.31,829.44h6.86V840.8a18,18,0,0,1-5.41,2.59,21.58,21.58,0,0,1-6.11.9,16.39,16.39,0,0,1-7.76-1.82,13.65,13.65,0,0,1-5.41-5.08,14.82,14.82,0,0,1,0-14.73,13.57,13.57,0,0,1,5.45-5.08,16.78,16.78,0,0,1,7.87-1.82,17.43,17.43,0,0,1,6.9,1.3,13.24,13.24,0,0,1,5.09,3.72l-4.93,4.46a8.74,8.74,0,0,0-6.67-3,7.36,7.36,0,0,0-7.83,7.83,8.21,8.21,0,0,0,1,4.06,6.92,6.92,0,0,0,2.74,2.78,8,8,0,0,0,4,1,10,10,0,0,0,4.19-.9Z"/><path class="cls-3" d="M406.08,833.79l-2.9,3.09v6.86H395.5V816.31h7.68v11.4l10.62-11.4h8.54l-11.2,12.15,11.79,15.28h-9Z"/><path class="cls-3" d="M437.59,833.9v9.84h-7.76v-10l-10.46-17.48h8.18l6.51,10.89,6.5-10.89h7.53Zm-2.73-20a14.31,14.31,0,0,1-1.86-1.12,12.34,12.34,0,0,0-1.12-.7,1.6,1.6,0,0,0-.76-.2,1.58,1.58,0,0,0-1.25.55,2.58,2.58,0,0,0-.55,1.53h-3.65a7.6,7.6,0,0,1,1.41-4.55,4.66,4.66,0,0,1,5.45-1.29,14.91,14.91,0,0,1,1.88,1.1,12.34,12.34,0,0,0,1.12.7,1.68,1.68,0,0,0,2-.33,2.4,2.4,0,0,0,.54-1.43h3.65a7.35,7.35,0,0,1-1.41,4.47,4.63,4.63,0,0,1-5.47,1.27Z"/><path class="cls-3" d="M467.29,822.46h-8.43v-6.15h24.57v6.15H475v21.28h-7.75Z"/><path class="cls-3" d="M512.42,816.31v27.43h-7.76V833H494.09v10.7h-7.76V816.31h7.76v10.31h10.57V816.31Z"/><path class="cls-3" d="M521.06,841q-3.39-3.33-3.39-9.45v-15.2h7.76v15q0,6.59,5.21,6.58t5.17-6.58v-15h7.65v15.2q0,6.12-3.39,9.45t-9.51,3.33Q524.46,844.29,521.06,841Z"/><path class="cls-3" d="M566.49,838.41H554.9l-2.16,5.33h-7.91l12.1-27.43h7.64l12.15,27.43h-8.07Zm-2.35-24.33-3.37-3-3.37,3h-4.93l5.09-6H564l5.09,6Zm.08,18.61-3.52-8.78-3.53,8.78Zm-5.66,18.77a2.86,2.86,0,0,1-.88-2.2,3,3,0,0,1,.88-2.23,3.28,3.28,0,0,1,4.43,0,3,3,0,0,1,.88,2.23,2.89,2.89,0,0,1-.88,2.2,3.4,3.4,0,0,1-4.43,0Z"/><path class="cls-3" d="M583.38,822.46H575v-6.15h24.57v6.15h-8.39v21.28h-7.76Z"/><path class="cls-3" d="M617,843.46a15.72,15.72,0,0,1-5.09-2.19l2.54-5.72a17.28,17.28,0,0,0,9,2.7q4.47,0,4.47-2.23a1.84,1.84,0,0,0-1.27-1.74,23.55,23.55,0,0,0-4.1-1.2,38.72,38.72,0,0,1-5.17-1.43,8.64,8.64,0,0,1-3.56-2.45,6.57,6.57,0,0,1-1.49-4.54,7.85,7.85,0,0,1,1.37-4.53,9.17,9.17,0,0,1,4.09-3.19,16.74,16.74,0,0,1,6.68-1.18,23.24,23.24,0,0,1,5.33.61,16.42,16.42,0,0,1,4.63,1.78l-2.39,5.76a16,16,0,0,0-7.61-2.11,6.47,6.47,0,0,0-3.37.68,2.06,2.06,0,0,0-1.05,1.78,1.76,1.76,0,0,0,1.25,1.65,23,23,0,0,0,4,1.14,37.05,37.05,0,0,1,5.19,1.43,8.93,8.93,0,0,1,3.56,2.43,6.47,6.47,0,0,1,1.51,4.52,7.74,7.74,0,0,1-1.37,4.47,9.32,9.32,0,0,1-4.11,3.19,16.59,16.59,0,0,1-6.66,1.2A25.28,25.28,0,0,1,617,843.46Z"/><path class="cls-3" d="M645.19,842.45a14,14,0,0,1,0-24.85,17.52,17.52,0,0,1,15.63,0,14,14,0,0,1,0,24.85,17.52,17.52,0,0,1-15.63,0Zm11.15-28.37L653,811.77l-3.33,2.31h-5l5.13-4.78h6.35l5.13,4.78Zm.43,22.8a7,7,0,0,0,2.66-2.76,9,9,0,0,0,0-8.19,7,7,0,0,0-2.66-2.76,7.7,7.7,0,0,0-7.52,0,7,7,0,0,0-2.67,2.76,9,9,0,0,0,0,8.19,7,7,0,0,0,2.67,2.76,7.7,7.7,0,0,0,7.52,0Zm5.56-31.62h7.29l-6.31,4.9h-5.13Z"/></g></g></svg>