<svg xmlns="http://www.w3.org/2000/svg" viewBox="0 0 128 237"><defs><style>.cls-1{fill:#e9e7e7;}</style></defs><g id="Layer_2" data-name="Layer 2"><g id="Layer_1-2" data-name="Layer 1"><path class="cls-1" d="M16.65,45.9,21.93,10h6.35L21.5,54H11.19L4.41,10h7Z"/><path class="cls-1" d="M31,10h7V93H31Z"/><path class="cls-1" d="M65,85v6q0,11.28-10,11.28T45,91V67.61q0-11.26,10-11.27T65,67.61V72H58V67.18q0-4.43-3.5-4.42T51,67.18V91.42q0,4.39,3.5,4.39T58,91.42V85Z"/><path class="cls-1" d="M89,65.83v25Q89,102,79,102T69,90.81V57h7V91.24q0,4.33,3.52,4.33T83,91.24V57h3V54h6v5.7ZM87.5,48l-6.44,7H76.39l4.32-7Z"/><path class="cls-1" d="M101,57V91.24q0,4.33,3.5,4.33t3.5-4.33V57h6V90.81Q114,102,104,102T94,90.81V57Z"/><path class="cls-1" d="M31,109h7v44H31Z"/><path class="cls-1" d="M48,121.15V153H42V109h8.81L58,135.36V109h6v44H56.75Z"/><path class="cls-1" d="M75,153H68V109h7v19h8V109h7v44H83V134H75Z"/><path class="cls-1" d="M116.8,165.59c0,.58.2,1.8.2,1.8v23.36q0,11-10.48,11T96,190.75V167.5q0-11.15,10.3-11.15a10.81,10.81,0,0,1,6.7,1.89V154h6v5.65ZM103,190.78c0,2.84,1.17,4.27,3.52,4.27s3.48-1.43,3.48-4.27V167.53q0-4.25-3.48-4.24T103,167.53ZM114.15,148l-6.45,7H103l4.29-7Z"/><path class="cls-1" d="M121,157h7v44h-7Z"/><polygon class="cls-1" points="6 109 6 115 13 115 13 153 20 153 20 115 27 115 27 109 6 109"/><rect class="cls-1" x="31" y="97" width="7" height="7"/><path class="cls-1" d="M82.53,157l-4.69,31.24L72.78,157H62v12.69a37.11,37.11,0,0,1,6,6.51v-6.31l1.38,8.37a38.59,38.59,0,0,1,5.83,20.5c0,.75,0,1.5-.06,2.24h5.48L85,169.46V201h6V157Z"/><rect class="cls-1" x="77" width="41" height="1"/><rect class="cls-1" x="46" y="213" width="61" height="1"/><path class="cls-1" d="M38.13,237a38.14,38.14,0,1,1,38.14-38.13A38.18,38.18,0,0,1,38.13,237Zm0-75A36.88,36.88,0,1,0,75,198.87,36.91,36.91,0,0,0,38.13,162Z"/></g></g></svg>