<svg xmlns="http://www.w3.org/2000/svg" viewBox="0 0 163 65.4"><defs><style>.cls-1{fill:#292929;}</style></defs><g id="Layer_2" data-name="Layer 2"><g id="Layer_1-2" data-name="Layer 1"><path class="cls-1" d="M0,0V29H52.85l7-17.37a1,1,0,0,1,.93-.63H76.62a1,1,0,0,1,.8.39,1,1,0,0,1,.16.88L73,29H90.61l7-17.37a1,1,0,0,1,.93-.63h15.84a1,1,0,0,1,1,1.27L110.71,29H163V0Z"/><path class="cls-1" d="M100.46,65.4a14.14,14.14,0,0,1-10.42-4A13.73,13.73,0,0,1,85.94,51a25.42,25.42,0,0,1,.77-6.16,71.42,71.42,0,0,1,3.47-9.45l9-22.43h13.85l-6.68,24.17a1,1,0,0,0,.56,1.18,12.93,12.93,0,0,1,5.8,4.91A14.26,14.26,0,0,1,114.82,51,13.67,13.67,0,0,1,100.46,65.4Zm-37.76,0a14.14,14.14,0,0,1-10.42-4A13.73,13.73,0,0,1,48.18,51,25.42,25.42,0,0,1,49,44.88a71.42,71.42,0,0,1,3.47-9.45l9-22.43H75.31L68.62,37.17a1,1,0,0,0,.56,1.18A12.93,12.93,0,0,1,75,43.26,14.26,14.26,0,0,1,77.06,51,13.67,13.67,0,0,1,62.7,65.4Z"/></g></g></svg>