<svg xmlns="http://www.w3.org/2000/svg" viewBox="0 0 978.2 146.4"><defs><style>.cls-1{opacity:0.3;}.cls-2{fill:#fff;}</style></defs><g id="Layer_2" data-name="Layer 2"><g id="Layer_1-2" data-name="Layer 1"><g class="cls-1"><path class="cls-2" d="M27.1,142.5Q10.6,138.6,0,132L15.2,97.6a96.63,96.63,0,0,0,22.4,9.3,87.7,87.7,0,0,0,23.8,3.5q9.8,0,14-1.9t4.2-5.7q0-4.39-5.5-6.6T56,91.4a205.79,205.79,0,0,1-27-7.3A46,46,0,0,1,10.2,71.3q-8-8.89-8-24.1a41.54,41.54,0,0,1,7.4-24Q17,12.4,31.7,6.2T67.4,0A129.43,129.43,0,0,1,95.7,3.1a88.76,88.76,0,0,1,24.5,9.1L106,46.4Q85.41,36,67,36q-18.2,0-18.2,8.8,0,4.2,5.4,6.3T72,55.6a182.82,182.82,0,0,1,27,6.9,47,47,0,0,1,19.1,12.7q8.1,8.8,8.1,24a41.08,41.08,0,0,1-7.4,23.9q-7.39,10.69-22.1,17T61,146.4A146.87,146.87,0,0,1,27.1,142.5Z"/><path class="cls-2" d="M235.6,118.8H182.4L173,143.2H125l61.2-140h46.4l61.2,140H245Zm-13-34L209,49.6,195.4,84.8Z"/><path class="cls-2" d="M443,3.2l-59.2,140H337.4L278.2,3.2H329L362.4,85,396.6,3.2Z"/><path class="cls-2" d="M447.6,3.2h47.2v140H447.6Z"/><path class="cls-2" d="M550.4,137a70.65,70.65,0,0,1-28.2-26.1Q512,94.2,512,73.2t10.2-37.7A70.65,70.65,0,0,1,550.4,9.4Q568.4,0,591,0t40.6,9.4a70.65,70.65,0,0,1,28.2,26.1Q670,52.2,670,73.2t-10.2,37.7A70.65,70.65,0,0,1,631.6,137q-18,9.41-40.6,9.4T550.4,137Zm56.5-33.1a30.81,30.81,0,0,0,11.3-12.2,38.85,38.85,0,0,0,4.2-18.5,38.85,38.85,0,0,0-4.2-18.5,30.81,30.81,0,0,0-11.3-12.2,31.55,31.55,0,0,0-31.8,0,30.74,30.74,0,0,0-11.3,12.2,38.85,38.85,0,0,0-4.2,18.5,38.85,38.85,0,0,0,4.2,18.5,30.74,30.74,0,0,0,11.3,12.2,31.55,31.55,0,0,0,31.8,0Z"/><path class="cls-2" d="M704,129q-18-17.4-18-48.8V3.2h47.2V78.8q0,15.4,5.5,22.4t15.9,7q10.39,0,15.9-7T776,78.8V3.2h46.4v77q0,31.39-18,48.8t-50.2,17.4Q722,146.4,704,129Z"/><path class="cls-2" d="M904,108H891.2v35.2H844V3.2h67.4q19.4,0,33.8,6.4T967.4,28q7.8,12,7.8,28,0,15-6.8,26.2A48.06,48.06,0,0,1,948.8,100l29.4,43.2H927.8Zm18.8-64.1q-4.8-4.3-14.4-4.3H891.2V72.4h17.2q9.6,0,14.4-4.3T927.6,56Q927.6,48.2,922.8,43.9Z"/></g></g></g></svg>