<svg xmlns="http://www.w3.org/2000/svg" xmlns:xlink="http://www.w3.org/1999/xlink" viewBox="0 0 422.56 401.03"><defs><style>.cls-1,.cls-12,.cls-22,.cls-23,.cls-27,.cls-28,.cls-29,.cls-30,.cls-31,.cls-32,.cls-4{fill:none;}.cls-2{fill:#ededed;}.cls-3{fill:#ddd;}.cls-23,.cls-4{stroke:#fff;}.cls-11,.cls-12,.cls-22,.cls-23,.cls-27,.cls-28,.cls-29,.cls-30,.cls-31,.cls-32,.cls-4{stroke-miterlimit:10;}.cls-4{stroke-width:0.98px;}.cls-5{fill:#d3d3d3;}.cls-6{fill:#c6c6c6;}.cls-7{fill:#cecece;}.cls-8{fill:#e0e0e0;}.cls-9{fill:#fff;}.cls-10{fill:#f4f4f4;}.cls-11{fill:#93ff8f;}.cls-11,.cls-12,.cls-22,.cls-30,.cls-31{stroke:#98ff3e;}.cls-11,.cls-12,.cls-23{stroke-linecap:round;}.cls-11,.cls-12{stroke-width:1.98px;}.cls-13{opacity:0.8;}.cls-14{clip-path:url(#clip-path);}.cls-15{fill:#3e4460;}.cls-16{fill:#8cff00;}.cls-17{fill:#ffd4d9;}.cls-18{fill:#f4cbd1;}.cls-19{fill:#98ff3e;}.cls-20{fill:#eaa0ab;}.cls-21{fill:#747c99;}.cls-22,.cls-23{stroke-width:2.12px;}.cls-24{fill:#f2c4cb;}.cls-25{fill:#606060;}.cls-26{fill:#383737;}.cls-27,.cls-28,.cls-29,.cls-32{stroke:#3e4460;}.cls-27{stroke-width:1.02px;}.cls-28{stroke-width:0.45px;}.cls-29{stroke-width:0.89px;}.cls-30{stroke-width:0.65px;}.cls-31{stroke-width:0.44px;}.cls-32{stroke-width:0.76px;}</style><clipPath id="clip-path"><rect class="cls-1" x="66.06" y="37.84" width="149.93" height="324.68" rx="74.97"/></clipPath></defs><g id="Layer_2" data-name="Layer 2"><g id="OBJECTS"><g id="Main"><circle class="cls-2" cx="351.11" cy="22.87" r="10.15" transform="translate(17.98 136.1) rotate(-22.5)"/><circle class="cls-2" cx="39.03" cy="295" r="8.82" transform="translate(-109.92 37.39) rotate(-22.5)"/><circle class="cls-2" cx="261.92" cy="352.14" r="8.82"/><circle class="cls-2" cx="62.81" cy="147" r="14.96" transform="translate(-92.35 185.45) rotate(-80.78)"/><path class="cls-2" d="M304.74,4.86A4.86,4.86,0,1,1,299.88,0,4.87,4.87,0,0,1,304.74,4.86Z"/><path class="cls-2" d="M244.59,369.69a4.86,4.86,0,1,1-4.86-4.86A4.86,4.86,0,0,1,244.59,369.69Z"/><path class="cls-2" d="M184.85,32.53A4.86,4.86,0,1,1,180,27.67,4.86,4.86,0,0,1,184.85,32.53Z"/><path class="cls-2" d="M404.3,270.55a4.86,4.86,0,1,1-4.85-4.86A4.86,4.86,0,0,1,404.3,270.55Z"/><path class="cls-2" d="M40.26,208.09a3.72,3.72,0,1,1-3.72-3.72A3.72,3.72,0,0,1,40.26,208.09Z"/><g id="BG"><rect class="cls-3" x="202.53" y="37.39" width="174.92" height="297.46"/><rect class="cls-2" x="206.02" y="41.4" width="167.95" height="287.52"/><line class="cls-4" x1="206.02" y1="76.35" x2="373.96" y2="76.35"/><path class="cls-3" d="M223.25,69.1h1.65a3.66,3.66,0,0,1,3.66,3.66v54.18a0,0,0,0,1,0,0h-9a0,0,0,0,1,0,0V72.77A3.66,3.66,0,0,1,223.25,69.1Z"/><rect class="cls-5" x="219.59" y="126.94" width="8.97" height="48"/><rect class="cls-6" x="219.59" y="125.06" width="8.97" height="3.78"/><path class="cls-6" d="M229.89,85H218.25V73.47a5.82,5.82,0,0,1,5.82-5.82h0a5.82,5.82,0,0,1,5.82,5.82Z"/><path class="cls-3" d="M242.74,69.1h1.65A3.66,3.66,0,0,1,248,72.77v54.18a0,0,0,0,1,0,0h-9a0,0,0,0,1,0,0V72.77a3.66,3.66,0,0,1,3.66-3.66Z"/><rect class="cls-5" x="239.07" y="126.94" width="8.97" height="48"/><rect class="cls-6" x="239.07" y="125.06" width="8.97" height="3.78"/><path class="cls-6" d="M249.38,85H237.74V73.47a5.82,5.82,0,0,1,5.82-5.82h0a5.82,5.82,0,0,1,5.82,5.82Z"/><path class="cls-3" d="M262.23,69.1h1.65a3.66,3.66,0,0,1,3.66,3.66v54.18a0,0,0,0,1,0,0h-9a0,0,0,0,1,0,0V72.77A3.66,3.66,0,0,1,262.23,69.1Z"/><rect class="cls-5" x="258.56" y="126.94" width="8.97" height="48"/><rect class="cls-6" x="258.56" y="125.06" width="8.97" height="3.78"/><path class="cls-6" d="M268.87,85H257.23V73.47a5.82,5.82,0,0,1,5.82-5.82h0a5.82,5.82,0,0,1,5.82,5.82Z"/><path class="cls-3" d="M281.71,69.1h1.65A3.66,3.66,0,0,1,287,72.77v54.18a0,0,0,0,1,0,0h-9a0,0,0,0,1,0,0V72.77A3.66,3.66,0,0,1,281.71,69.1Z"/><rect class="cls-5" x="278.05" y="126.94" width="8.97" height="48"/><rect class="cls-6" x="278.05" y="125.06" width="8.97" height="3.78"/><path class="cls-6" d="M288.35,85H276.72V73.47a5.81,5.81,0,0,1,5.82-5.82h0a5.81,5.81,0,0,1,5.81,5.82Z"/><path class="cls-3" d="M301.2,69.1h1.65a3.66,3.66,0,0,1,3.66,3.66v54.18a0,0,0,0,1,0,0h-9a0,0,0,0,1,0,0V72.77A3.66,3.66,0,0,1,301.2,69.1Z"/><rect class="cls-5" x="297.54" y="126.94" width="8.97" height="48"/><rect class="cls-6" x="297.54" y="125.06" width="8.97" height="3.78"/><path class="cls-6" d="M302,67.65h0a5.82,5.82,0,0,1,5.82,5.82V85a0,0,0,0,1,0,0H296.21a0,0,0,0,1,0,0V73.47A5.82,5.82,0,0,1,302,67.65Z"/><path class="cls-3" d="M320.69,69.1h1.65A3.66,3.66,0,0,1,326,72.77v54.18a0,0,0,0,1,0,0h-9a0,0,0,0,1,0,0V72.77A3.66,3.66,0,0,1,320.69,69.1Z"/><rect class="cls-5" x="317.03" y="126.94" width="8.97" height="48"/><rect class="cls-6" x="317.03" y="125.06" width="8.97" height="3.78"/><path class="cls-6" d="M327.33,85H315.7V73.47a5.81,5.81,0,0,1,5.81-5.82h0a5.81,5.81,0,0,1,5.82,5.82Z"/><path class="cls-3" d="M340.18,69.1h1.65a3.66,3.66,0,0,1,3.66,3.66v54.18a0,0,0,0,1,0,0h-9a0,0,0,0,1,0,0V72.77A3.66,3.66,0,0,1,340.18,69.1Z"/><rect class="cls-5" x="336.52" y="126.94" width="8.97" height="48"/><rect class="cls-6" x="336.52" y="125.06" width="8.97" height="3.78"/><path class="cls-6" d="M346.82,85H335.19V73.47A5.81,5.81,0,0,1,341,67.65h0a5.81,5.81,0,0,1,5.82,5.82Z"/><rect class="cls-3" x="204.04" y="219.03" width="171.86" height="3.46"/><rect class="cls-3" x="204.04" y="291.61" width="171.86" height="3.46"/><rect class="cls-3" x="211.1" y="283.4" width="64.28" height="8.57" rx="3.48"/><rect class="cls-7" x="211.1" y="257.7" width="64.28" height="8.57" rx="3.48"/><rect class="cls-8" x="211.1" y="266.27" width="64.28" height="8.57" rx="3.48"/><rect class="cls-9" x="211.1" y="274.83" width="64.28" height="8.57" rx="3.48"/><rect class="cls-7" x="211.1" y="193.33" width="64.28" height="8.57" rx="3.48"/><rect class="cls-8" x="211.1" y="201.9" width="64.28" height="8.57" rx="3.48"/><rect class="cls-9" x="211.1" y="210.46" width="64.28" height="8.57" rx="3.48"/><rect class="cls-9" x="297.39" y="193.33" width="64.28" height="8.57" rx="3.48"/><rect class="cls-8" x="297.39" y="201.9" width="64.28" height="8.57" rx="3.48"/><rect class="cls-9" x="297.39" y="210.46" width="64.28" height="8.57" rx="3.48"/><rect class="cls-3" x="300.72" y="283.4" width="64.28" height="8.57" rx="3.48"/><rect class="cls-8" x="300.72" y="266.27" width="64.28" height="8.57" rx="3.48"/><rect class="cls-9" x="300.72" y="274.83" width="64.28" height="8.57" rx="3.48"/></g><g id="Refl"><rect class="cls-10" x="66.06" y="37.84" width="149.93" height="324.68" rx="74.97"/><line class="cls-11" x1="66.06" y1="209.9" x2="66.06" y2="388.46"/><line class="cls-11" x1="215.99" y1="209.9" x2="215.99" y2="388.46"/><path class="cls-12" d="M33.84,399.61h0A11.15,11.15,0,0,1,45,388.46H237.07a11.15,11.15,0,0,1,11.15,11.15h0"/><g class="cls-13"><g class="cls-14"><path class="cls-15" d="M82.76,87.49c0,6-1.12,12.46-3.44,15.1-1.88,2.15-4.86,3.46-5.8,7-.77,2.94,3.09,5,1.89,7.77-.83,1.93-9.08,4.42-9.08,10.09,0,6.52,9.06,9.49,16.4,9.42,10.45-.11,17.32-.81,17.51-9.95s0-18.56-2-19.84-8.34-20.16-8.34-20.16Z"/><path class="cls-16" d="M175.64,184.17h3c0-11.53-6.56-24.54-14.66-24.54a10.42,10.42,0,0,0-1.48.11C169.86,160.8,175.64,173.35,175.64,184.17Z"/><polygon class="cls-17" points="109.89 380.79 105.01 362.76 116.05 360.26 119.05 379.9 119.58 381.82 116.26 386.01 110.51 383.91 109.89 380.79"/><polygon class="cls-17" points="164.46 378.01 161.61 366.88 151.63 369.75 154.2 377.17 154.08 378.97 157.4 383.15 163.15 381.06 164.46 378.01"/><path class="cls-17" d="M134.13,169.61s-2.27-8.81-4.63-21.64l-8.38-1.86-7.31-18.86,1.57-6s14.07.58,18.46,3.76c2.52,1.86,8.26,21.71,9.86,35.6l35.53-1V165s-31,7.47-34.38,8.05c-1.17.16-6.55,2.26-8.6.9C134.65,172.94,134.13,169.61,134.13,169.61Z"/><path class="cls-17" d="M95.55,122.87s-22.24,5.69-26.66,11.27-12.58,31.61-13,35.56,11.79,46.83,11.79,46.83l5.42-13.72c-1.38-3.59-3-22.88-5.56-29.62l7.2-18.13Z"/><path class="cls-17" d="M92.1,100s1.44,19.91,1.44,22.7-2.45,6.49-2.45,6.49,6.39,7,21.15-5.92c0,0-5.92-7.21-5.92-11.63l-7.21-8.28Z"/><path class="cls-18" d="M106.32,111.59a12.06,12.06,0,0,0,1.58,5.07c-7.51.08-11.55-3.31-13.33-13.25a8.22,8.22,0,0,1,.66-2.39l3.88,2.29Z"/><path class="cls-19" d="M91.09,124.51s-19.87,19.62-20.34,26.71c-.29,4.43.56,8.59,3,11.2a23.27,23.27,0,0,1,5.8,16.36l-.3,13.47H120c0-12.78,9.14-33.65,9.49-44.28,0,0-15-8.72-14.12-26.67h-4.59L96.55,131Z"/><path class="cls-15" d="M79.21,192.25a64,64,0,0,0-14,40.21c.28,20.69,17.67,70.89,19.76,78.1s22.18,61.65,22.18,61.65c.24.59,10.69-1.25,10.81-3.23s1.18-19.14-3.7-32.39-6.74-27.26-6.74-31-4.13-55.83-4.82-65.25c0,0,19.84,55,24.37,62.16,2.09,3.66,5.61,27.27,8.4,34.25s13,27.31,15.75,33.1c.45,1,11.24-.85,10.82-3.66-.93-6.29-7.05-40.95-9-49s-4-15.51-4-17.78-6.63-66.59-12.56-82.11A71.53,71.53,0,0,0,120,192.25Z"/><path class="cls-19" d="M119.05,379.9c3.65,1-.17,13.88.53,17.37h-2l-.65-7.84c-3,1.28-8.19,8.77-23.41,8.77h-4.3v-2.56s16-5.8,20-14.78c1.57-.69,3.55,2.59,7.24,1.92C119.32,382.26,119.05,379.9,119.05,379.9Z"/><path class="cls-19" d="M154.16,377.05c-7.06,1.68-.11,16.73-.81,20.22h1.92v-11.5c3,1.27,3.43,12.43,15,12.43h9.76v-2.56S167.67,388,164.46,378c-1.57-.7-3.55,2.59-7.24,1.92A3.42,3.42,0,0,1,154.16,377.05Z"/><path class="cls-17" d="M199.54,165.63l.74,2.6a1.21,1.21,0,0,1-1.39-.52c-.52-.82-2-4.25-2-4.25l1.86,1Z"/><path class="cls-17" d="M197.2,164l.82,2.58a1.21,1.21,0,0,1-1.41-.48c-.55-.8-2.17-4.18-2.17-4.18l1.9,1Z"/><path class="cls-17" d="M179.23,159.63S196,161,196.85,161.32s5.82,5.54,6.5,6.43c.42.48-1.15.81-1.69.46s-3.62-4-4.88-4.13-6.22,0-6.44,0,3.48,2.79,3.48,3.49-1.32.69-1.94.51a32,32,0,0,1-3.29-1.9c-.51-.29-5.56,1.46-9.36-1.14Z"/><path class="cls-19" d="M149.91,184.17c0-10.82,5.79-23.37,13.19-24.43a10.31,10.31,0,0,0-1.48-.11c-8.1,0-14.66,13-14.66,24.54Z"/><rect class="cls-19" x="144.16" y="183.79" width="36.57" height="22.7" rx="1.57"/><path class="cls-17" d="M90.48,96.33c2.52,13.38,11.76,19.26,21,17,11.12-2.68,8.12-27.8,8.12-27.8C119,81,117.28,71.62,101.19,71c-12.64-.46-16.66,9.11-16.88,15.27C84.19,89.37,87,96.2,90.48,96.33Z"/><path class="cls-15" d="M120.24,93.35s-17,.64-23.48-8.72c0,0-.62,7.83-5.73,11.54-.73.53,2.77,9.24,1.76,13.57-3.4-5.73-10.85-6.45-10-23.28C83.12,80.19,88.52,70,100.1,70S124.71,74,120.24,93.35Z"/><path class="cls-17" d="M94.83,94.58c1.09,1.73,1.43,4.28-.68,5.78-1.75,1.24-4.83.38-6.16-2.63-.82-1.87-.89-4.66.84-5.74S93.74,92.86,94.83,94.58Z"/><path class="cls-17" d="M89.39,94.15c1.62-1.58,5.62,3,3.38,4.74"/><path class="cls-20" d="M89.39,94.13a1.54,1.54,0,0,1,1.86-.1,4.41,4.41,0,0,1,1.48,1.3,4,4,0,0,1,.79,1.81,1.79,1.79,0,0,1-.74,1.75h0s0,0,0,0a1.79,1.79,0,0,0,.53-1.71,4,4,0,0,0-.77-1.69,4.73,4.73,0,0,0-1.37-1.27,1.52,1.52,0,0,0-1.74-.06h0Z"/><path id="Eye.L2" class="cls-15" d="M115.65,97.79h0a1,1,0,0,1-1-.94l0-.76a1,1,0,0,1,.94-1h0a1,1,0,0,1,1,.94l0,.77A1,1,0,0,1,115.65,97.79Z"/><path id="Eye.R2" class="cls-15" d="M104.94,98.11h0a1,1,0,0,1-1-.94l0-.76a1,1,0,0,1,.94-1h0a1,1,0,0,1,1,.94l0,.76A1,1,0,0,1,104.94,98.11Z"/><path class="cls-15" d="M105.8,93.26c-.29-.1-.62-.23-.93-.32a5.21,5.21,0,0,0-1-.21,6.69,6.69,0,0,0-2,0h0a.18.18,0,0,1-.12-.33,3.47,3.47,0,0,1,2.23-.55,3.73,3.73,0,0,1,1.15.28,3.14,3.14,0,0,1,1,.65.29.29,0,0,1,0,.42.28.28,0,0,1-.31.07Z"/><path class="cls-15" d="M118.16,94.37c-.67-.1-1.35-.25-2-.31a4,4,0,0,0-1.94.17h0a.2.2,0,0,1-.24-.1.22.22,0,0,1,0-.18,2,2,0,0,1,1-.65,4,4,0,0,1,1.18-.13,5.41,5.41,0,0,1,1.14.17,3.64,3.64,0,0,1,1.07.47.29.29,0,0,1,.08.42.28.28,0,0,1-.29.13Z"/><path class="cls-15" d="M112.32,98.9c.31.65.59,1.3.87,2s.55,1.33.82,2c.07.17.13.31.2.51a.78.78,0,0,1-.12.63.8.8,0,0,1-.53.33l-.54.08a4.45,4.45,0,0,1-2.14-.33s0,0,0,0h0a5.32,5.32,0,0,0,2.1.11c.34-.06.73-.07.87-.32a.5.5,0,0,0,.07-.41c0-.13-.12-.32-.18-.48-.26-.67-.53-1.34-.76-2s-.49-1.35-.7-2c0,0,0,0,0,0S112.32,98.89,112.32,98.9Z"/><path class="cls-15" d="M113.42,107.94a3.34,3.34,0,0,1-1.79.69,4.11,4.11,0,0,1-1.93-.27,5.25,5.25,0,0,1-1.63-1c-.23-.23-.43-.48-.64-.72s-.35-.53-.5-.81a0,0,0,0,1,0,0h0c.24.2.47.41.69.62s.47.39.72.57a7.08,7.08,0,0,0,1.52.9,5,5,0,0,0,1.71.35,4.76,4.76,0,0,0,1.77-.31s0,0,0,0S113.43,107.94,113.42,107.94Z"/><path class="cls-21" d="M101.63,235.48c-.77-2.26-1.39-4.56-1.94-6.88s-1-4.66-1.36-7-.57-4.73-.7-7.11a47.23,47.23,0,0,1,.28-7.14s0,0,0,0,0,0,0,0a65,65,0,0,0,0,7.12c.16,2.37.42,4.72.76,7.07s.78,4.68,1.26,7,1,4.64,1.67,6.93c0,0,0,0,0,0S101.63,235.5,101.63,235.48Z"/><path class="cls-21" d="M120.88,196.4c-3.5.07-7,.11-10.5.14s-7,0-10.5.05-7,0-10.5,0-7-.07-10.5-.16c0,0,0,0,0,0l0,0c3.5-.08,7-.12,10.5-.16s7,0,10.5,0,7,0,10.5.05,7,.06,10.5.14c0,0,.07,0,.07,0Z"/><path class="cls-21" d="M117.79,196.39a17.43,17.43,0,0,0,1.86,3.65,15.68,15.68,0,0,0,2.66,3.08,14.25,14.25,0,0,0,3.35,2.3,18.81,18.81,0,0,0,3.83,1.46s0,0,0,0a0,0,0,0,1,0,0,14.68,14.68,0,0,1-4-1.17,13.47,13.47,0,0,1-3.47-2.31,14.4,14.4,0,0,1-2.66-3.22,13.79,13.79,0,0,1-1.63-3.81s0,0,0,0Z"/><path class="cls-21" d="M83.59,196.4a12.74,12.74,0,0,1-3.3,6.86,11.15,11.15,0,0,1-1.46,1.28,11.7,11.7,0,0,1-1.68,1,11.17,11.17,0,0,1-3.7,1l0,0s0,0,0,0A14.46,14.46,0,0,0,77,205.19a10.88,10.88,0,0,0,1.6-1A13.64,13.64,0,0,0,80,203a13.22,13.22,0,0,0,2.19-3,15.76,15.76,0,0,0,1.37-3.53s0,0,0,0S83.59,196.39,83.59,196.4Z"/><path class="cls-15" d="M106.67,113.8a11.41,11.41,0,0,1-4-.63,15.32,15.32,0,0,1-3.6-1.79,17,17,0,0,1-3-2.67c-.47-.49-.83-1.06-1.25-1.58s-.72-1.13-1.06-1.7c0,0,0,0,0,0h0c.4.53.76,1.09,1.17,1.62s.81,1,1.29,1.5a18.53,18.53,0,0,0,3,2.61,16.5,16.5,0,0,0,3.52,1.81,13.15,13.15,0,0,0,3.87.8s0,0,0,0A0,0,0,0,1,106.67,113.8Z"/><path class="cls-15" d="M143.31,160.69a5.94,5.94,0,0,0-1.43.51,6.44,6.44,0,0,0-1.26.81,7.16,7.16,0,0,0-1.05,1.08,11.12,11.12,0,0,0-.87,1.25h0a5.67,5.67,0,0,1,.7-1.39,5.4,5.4,0,0,1,2.41-1.95,4.47,4.47,0,0,1,1.52-.34s0,0,0,0S143.32,160.69,143.31,160.69Z"/><path class="cls-15" d="M96.85,84.13a8.68,8.68,0,0,0,1,2.11,11.63,11.63,0,0,0,1.47,1.81,15.19,15.19,0,0,0,1.78,1.52c.63.47,1.3.87,2,1.29,0,0,0,0,0,0h0a14.55,14.55,0,0,1-2.1-1.11,12.7,12.7,0,0,1-1.84-1.52,10,10,0,0,1-1.46-1.9,6.58,6.58,0,0,1-.84-2.22s0,0,0,0A0,0,0,0,1,96.85,84.13Z"/><path class="cls-15" d="M96.85,84.13c0,.49.05,1,.1,1.46A13.79,13.79,0,0,0,97.2,87a11.66,11.66,0,0,0,.42,1.39,12.08,12.08,0,0,0,.6,1.33h0a5.66,5.66,0,0,1-.8-1.25,7.17,7.17,0,0,1-.47-1.42,8.23,8.23,0,0,1-.2-1.48,7.35,7.35,0,0,1,.08-1.48h0Z"/><path class="cls-15" d="M76.45,162.67a18.45,18.45,0,0,0,3.13.45,25.31,25.31,0,0,0,3.14,0,27.31,27.31,0,0,0,3.13-.39c1-.16,2.06-.42,3.11-.65l0,0a0,0,0,0,1,0,0,16.94,16.94,0,0,1-3,1.07,18.21,18.21,0,0,1-3.19.48,17.29,17.29,0,0,1-3.22-.12,11.42,11.42,0,0,1-3.11-.82,0,0,0,0,1,0-.05S76.44,162.66,76.45,162.67Z"/><path class="cls-15" d="M97.65,161.64a31.94,31.94,0,0,0,5.84.58,32.46,32.46,0,0,0,5.83-.48c1-.15,1.9-.41,2.85-.64a25,25,0,0,0,2.76-1,29.89,29.89,0,0,0,5.2-2.71s0,0,0,0a0,0,0,0,1,0,0,22.16,22.16,0,0,1-5,3.11,27.7,27.7,0,0,1-2.8,1,24.3,24.3,0,0,1-2.9.66,26.89,26.89,0,0,1-5.94.37,24.64,24.64,0,0,1-5.85-.94,0,0,0,0,1,0-.08Z"/><path class="cls-21" d="M161.18,364.88a5.48,5.48,0,0,1-2.26,1.53,21.34,21.34,0,0,1-2.58.91,18.82,18.82,0,0,1-2.69.53,9.09,9.09,0,0,1-1.38,0,2.29,2.29,0,0,1-1.3-.4s0,0,0,0h0a4.55,4.55,0,0,0,2.64.15,23.86,23.86,0,0,0,2.64-.57,26.76,26.76,0,0,0,2.58-.84,5.84,5.84,0,0,0,2.3-1.34h0S161.18,364.87,161.18,364.88Z"/><path class="cls-21" d="M117.4,366.9a4.88,4.88,0,0,1-2.27,1.42,23.32,23.32,0,0,1-2.58.8,24.33,24.33,0,0,1-2.66.48,6.59,6.59,0,0,1-2.69-.1s0,0,0,0h0a7.89,7.89,0,0,0,2.65-.12c.88-.13,1.75-.31,2.62-.52s1.72-.45,2.57-.73a5.48,5.48,0,0,0,2.32-1.23h0S117.41,366.89,117.4,366.9Z"/><path class="cls-15" d="M111.42,122.91l-5.68,4.1-5.71,4-3.93,2.75-1.56-1.9-4.39-5.46s0,0,0,0,0,0,0,0l4.55,5.32,1.43,1.7,3.71-2.62,5.75-4,5.79-4s0,0,0,0Z"/></g></g><rect class="cls-22" x="66.06" y="37.84" width="149.93" height="324.68" rx="74.97"/><line class="cls-23" x1="183.62" y1="71.02" x2="90.3" y2="216.35"/><line class="cls-23" x1="183.62" y1="127.52" x2="90.3" y2="272.85"/></g><g id="Char"><path class="cls-15" d="M359.9,89.82c0,6,1.12,12.45,3.44,15.1,1.88,2.15,4.86,3.45,5.79,7,.78,2.94-3.09,5-1.88,7.77.83,1.93,9.07,4.42,9.08,10.1,0,6.52-9.06,9.49-16.4,9.41-10.45-.1-17.32-.8-17.52-9.94s0-18.57,2-19.85,8.34-20.16,8.34-20.16Z"/><polygon class="cls-17" points="332.77 383.11 337.65 365.08 326.61 362.59 323.61 382.23 323.08 384.15 326.39 388.33 332.15 386.24 332.77 383.11"/><polygon class="cls-17" points="278.2 380.33 281.05 369.2 291.03 372.08 288.46 379.49 288.57 381.29 285.26 385.47 279.51 383.38 278.2 380.33"/><path class="cls-17" d="M309,170.47s3.3-6.69,5.66-19.53l6.92-2.5,7.31-18.86-1.57-6s-14.07.58-18.46,3.76c-2.52,1.87-8.72,20.69-10.33,34.58H263.43l-2.49,6.28s32.32,6.3,35.68,6.89c1.17.15,6.6,1.12,8.78,0C307.93,173.83,309,170.47,309,170.47Z"/><path class="cls-17" d="M314.62,150.94s2.47-5.78,2.47-9.51"/><path class="cls-20" d="M314.61,150.92c.24-.79.49-1.57.74-2.35s.5-1.55.7-2.35.44-1.57.6-2.36a24.47,24.47,0,0,0,.42-2.42h0a10.83,10.83,0,0,1-.11,2.48,22.29,22.29,0,0,1-.55,2.42c-.24.79-.48,1.58-.79,2.34a22.8,22.8,0,0,1-1,2.26h0S314.6,150.93,314.61,150.92Z"/><path class="cls-24" d="M245,172.9a5.15,5.15,0,0,0,.21,2.13c.35.68,2.88-2.17,3.68-3.73s4.49-3.86,4.58-4.39-3.28-.5-3.28-.5l-4.3,3.36Z"/><path class="cls-24" d="M241.19,175.22a5,5,0,0,0,.2,2.12c.35.68,2.88-2.17,3.69-3.73s4.48-3.86,4.58-4.39-3.29-.49-3.29-.49l-4.29,3.36Z"/><path class="cls-17" d="M249.94,171.49a31.7,31.7,0,0,0-3,1.64c-.64.55-1.1,2.19.37,2.21s4.53-1.69,5.82-2.43,6.71-1,8-4.19l1-1.46s3.29-4.85,1.42-5.27c-5.55-1.24-12.38,1.74-16,3.41-.9.53-10.55,10.4-11.2,11.67,1.81,1.6,7.92-2.85,10.74-6.48a21.72,21.72,0,0,1,4.59-1.14C251.93,169.78,251.6,170.44,249.94,171.49Z"/><path class="cls-17" d="M347.11,125.19s22.24,5.69,26.65,11.27,12.58,31.61,13.05,35.56S375,218.85,375,218.85l-5.42-13.71c1.38-3.59,3-22.89,5.56-29.63L368,157.38Z"/><path class="cls-20" d="M375.15,175.49a3.71,3.71,0,0,1,.86-.5,5.24,5.24,0,0,1,.94-.33,6.57,6.57,0,0,1,1-.17,4.67,4.67,0,0,1,1,0h0l-1,.19c-.32,0-.63.13-.95.2s-.61.17-.92.26-.61.21-.92.34a0,0,0,0,1,0,0Z"/><path class="cls-17" d="M350.56,102.27s-1.44,19.91-1.44,22.7,2.45,6.5,2.45,6.5-6.4,7-21.15-5.93c0,0,5.92-7.21,5.92-11.62l7.21-8.28Z"/><path class="cls-18" d="M336.34,113.92a12,12,0,0,1-1.59,5.06c7.52.08,11.56-3.31,13.34-13.24a8.32,8.32,0,0,0-.66-2.4l-3.88,2.3Z"/><path id="Chess" class="cls-25" d="M351.57,126.83s16.6,15.92,19.08,25c1.17,4.28,1,11.09-1.42,13.7-4.05,4.4-5.2,8.87-5.07,14.85l-.71,14.16h-40.8c0-12.78-7.68-33-8-43.63a32.65,32.65,0,0,0,12.66-27.32h4.59l14.23,9.73Z"/><path class="cls-26" d="M363.45,194.57a64,64,0,0,1,14,40.21c-.28,20.69-17.66,70.9-19.75,78.1s-22.19,61.66-22.19,61.66c-.23.58-10.68-1.26-10.8-3.23s-1.18-19.14,3.7-32.39,6.74-27.27,6.74-31,4.13-55.83,4.82-65.24c0,0-19.84,55-24.37,62.15-2.09,3.66-5.61,27.28-8.4,34.25s-13,27.31-15.75,33.1c-.45,1-11.24-.85-10.82-3.65.93-6.3,7-41,9-49s4-15.52,4-17.78,6.63-66.6,12.55-82.11a71.62,71.62,0,0,1,16.47-25.11Z"/><path class="cls-25" d="M323.6,382.23c-3.64,1,.18,13.88-.52,17.36h2l.65-7.84c3,1.28,8.19,8.77,23.41,8.77h4.3V398s-16-5.8-20-14.78c-1.56-.7-3.54,2.59-7.23,1.91C323.34,384.58,323.6,382.23,323.6,382.23Z"/><path class="cls-25" d="M288.5,379.37c7.06,1.69.11,16.74.8,20.22h-1.91v-11.5c-3,1.28-3.43,12.43-15.05,12.43h-9.77V398s12.42-7.61,15.63-17.64c1.57-.7,3.55,2.59,7.24,1.92A3.42,3.42,0,0,0,288.5,379.37Z"/><path class="cls-17" d="M352.18,98.65c-2.52,13.38-11.76,19.26-21,17C320,113,323,87.87,323,87.87c.66-4.51,2.35-13.93,18.45-14.51,12.64-.46,16.66,9.11,16.88,15.26C358.46,91.7,355.68,98.52,352.18,98.65Z"/><path class="cls-15" d="M322.42,95.67s17,.64,23.47-8.71c0,0,.63,7.82,5.73,11.54.73.53-2.76,9.23-1.75,13.57,3.39-5.74,10.85-6.46,10-23.28-.32-6.28-5.72-16.45-17.3-16.45S318,76.33,322.42,95.67Z"/><path class="cls-17" d="M347.83,96.91c-1.09,1.72-1.43,4.27.68,5.77,1.75,1.24,4.82.38,6.16-2.63.82-1.86.88-4.65-.84-5.74S348.91,95.18,347.83,96.91Z"/><path class="cls-17" d="M353.26,96.47c-1.61-1.58-5.62,3-3.37,4.74"/><path class="cls-20" d="M353.24,96.48a1.5,1.5,0,0,0-1.74,0,4.88,4.88,0,0,0-1.37,1.27,4.06,4.06,0,0,0-.77,1.69,1.78,1.78,0,0,0,.53,1.71s0,0,0,0a0,0,0,0,1,0,0,1.8,1.8,0,0,1-.74-1.76,3.89,3.89,0,0,1,.79-1.81,4.38,4.38,0,0,1,1.48-1.29,1.53,1.53,0,0,1,1.86.09v0S353.25,96.48,353.24,96.48Z"/><path id="Eye.R" class="cls-15" d="M327,100.11h0a1,1,0,0,0,1-.93l0-.77a1,1,0,0,0-.94-1h0a1,1,0,0,0-1,.93l0,.77A1,1,0,0,0,327,100.11Z"/><path id="Eye.L" class="cls-15" d="M337.72,100.43h0a1,1,0,0,0,1-.93l0-.77a1,1,0,0,0-.94-1h0a1,1,0,0,0-1,.93l0,.77A1,1,0,0,0,337.72,100.43Z"/><path class="cls-15" d="M336.5,95.1a3.14,3.14,0,0,1,1-.65,4.05,4.05,0,0,1,1.14-.28,3.48,3.48,0,0,1,2.24.55.18.18,0,0,1,0,.25.17.17,0,0,1-.16.08h0a7,7,0,0,0-2,0,5.23,5.23,0,0,0-.95.22c-.32.08-.64.21-.94.31l0,0a.3.3,0,0,1-.38-.19A.3.3,0,0,1,336.5,95.1Z"/><path class="cls-15" d="M324.26,96.14a3.58,3.58,0,0,1,1.06-.47,6.38,6.38,0,0,1,1.15-.17,4.36,4.36,0,0,1,1.18.13,2,2,0,0,1,1,.66.18.18,0,0,1,0,.25.19.19,0,0,1-.18,0h0a3.84,3.84,0,0,0-1.94-.16c-.67,0-1.35.2-2,.3h0a.3.3,0,0,1-.34-.26A.3.3,0,0,1,324.26,96.14Z"/><path class="cls-15" d="M330.37,101.23c-.21.69-.45,1.37-.7,2s-.51,1.34-.76,2c-.06.16-.14.35-.18.49a.52.52,0,0,0,.06.4c.14.25.53.26.88.33a5.33,5.33,0,0,0,2.1-.12s0,0,0,0,0,0,0,0a4.22,4.22,0,0,1-2.14.33,3.35,3.35,0,0,1-.54-.08.8.8,0,0,1-.53-.33.76.76,0,0,1-.12-.62c.07-.21.13-.35.2-.52.27-.66.53-1.33.81-2s.57-1.32.88-2c0,0,0,0,0,0S330.38,101.23,330.37,101.23Z"/><path class="cls-15" d="M329.28,110.2a4.72,4.72,0,0,0,3.47,0,6.61,6.61,0,0,0,1.53-.9c.25-.17.47-.38.72-.56s.44-.42.69-.63h0a0,0,0,0,1,0,0c-.15.27-.32.54-.5.8s-.41.49-.64.72a5.39,5.39,0,0,1-1.63,1.06A4.42,4.42,0,0,1,331,111a3.42,3.42,0,0,1-1.78-.69s0,0,0,0S329.27,110.2,329.28,110.2Z"/><path class="cls-21" d="M341,237.78c.62-2.29,1.17-4.6,1.67-6.93s.92-4.65,1.26-7,.6-4.71.76-7.08a67.63,67.63,0,0,0,0-7.12s0,0,0,0,0,0,0,0a44.8,44.8,0,0,1,.28,7.14,70.88,70.88,0,0,1-.69,7.12c-.37,2.35-.8,4.7-1.36,7s-1.17,4.62-1.94,6.87c0,0,0,0,0,0A.06.06,0,0,1,341,237.78Z"/><path class="cls-21" d="M321.78,198.67c3.5-.07,7-.11,10.5-.14s7,0,10.5,0,7,0,10.5,0,7,.07,10.5.16l0,0s0,0,0,0c-3.5.09-7,.12-10.5.16s-7,0-10.5,0-7,0-10.5,0-7-.06-10.5-.13c0,0-.07,0-.07,0S321.74,198.67,321.78,198.67Z"/><path class="cls-21" d="M324.92,198.73a13.72,13.72,0,0,1-1.63,3.82,14.35,14.35,0,0,1-2.66,3.21,13.22,13.22,0,0,1-3.47,2.31,14.33,14.33,0,0,1-4,1.17l0,0s0,0,0,0a19,19,0,0,0,3.83-1.45,14.55,14.55,0,0,0,3.35-2.3,16.64,16.64,0,0,0,2.66-3.08,17.16,17.16,0,0,0,1.85-3.65s0,0,0,0S324.92,198.72,324.92,198.73Z"/><path class="cls-21" d="M359.12,198.72a16.42,16.42,0,0,0,1.36,3.53,13.48,13.48,0,0,0,2.2,3,15.08,15.08,0,0,0,1.39,1.25,11.33,11.33,0,0,0,1.59,1,14.25,14.25,0,0,0,3.56,1.27,0,0,0,0,1,0,0s0,0,0,0a11.29,11.29,0,0,1-3.71-1,12.83,12.83,0,0,1-1.68-1,11.83,11.83,0,0,1-1.45-1.29,12.15,12.15,0,0,1-2.18-3.18,12.57,12.57,0,0,1-1.12-3.67s0,0,0,0S359.12,198.7,359.12,198.72Z"/><path class="cls-15" d="M336,116.09a12.22,12.22,0,0,0,2.26-.35,16.71,16.71,0,0,0,2.18-.69,15.42,15.42,0,0,0,2.05-1c.68-.36,1.31-.78,2-1.2,0,0,0,0,0,0s0,0,0,0a13.34,13.34,0,0,1-1.85,1.39,12.93,12.93,0,0,1-2.07,1,13.49,13.49,0,0,1-2.23.64,9,9,0,0,1-2.31.16s0,0,0,0Z"/><path class="cls-17" d="M298.49,162a7.08,7.08,0,0,1,5.48,3.81"/><path class="cls-20" d="M298.51,161.93a6,6,0,0,1,1.73.29,6.74,6.74,0,0,1,1.6.77,5.4,5.4,0,0,1,1.32,1.2,5.11,5.11,0,0,1,.83,1.56l0,0h0a9.42,9.42,0,0,0-1.06-1.35,6.66,6.66,0,0,0-1.28-1.08,8.83,8.83,0,0,0-1.48-.81,11.12,11.12,0,0,0-1.63-.54v0S298.5,161.93,298.51,161.93Z"/><path class="cls-15" d="M345.84,86.46a6.47,6.47,0,0,1-.85,2.22,9.79,9.79,0,0,1-1.45,1.89,12.26,12.26,0,0,1-1.85,1.52,12.82,12.82,0,0,1-2.1,1.12h0v0c.68-.41,1.35-.82,2-1.29a16,16,0,0,0,1.78-1.51,12.13,12.13,0,0,0,1.46-1.82,7.72,7.72,0,0,0,1-2.11h0S345.84,86.45,345.84,86.46Z"/><path class="cls-15" d="M345.85,86.45a7.27,7.27,0,0,1,.08,1.48,9.39,9.39,0,0,1-.2,1.48,7.08,7.08,0,0,1-.47,1.41,5.23,5.23,0,0,1-.8,1.25,0,0,0,0,1,0,0h0a9.93,9.93,0,0,0,.61-1.33,11.13,11.13,0,0,0,.42-1.39,13.76,13.76,0,0,0,.24-1.43,14.13,14.13,0,0,0,.11-1.46s0,0,0,0Z"/><path class="cls-21" d="M281.52,367.19a6,6,0,0,0,2.3,1.33c.85.32,1.7.61,2.58.85a21.74,21.74,0,0,0,2.64.56,4.55,4.55,0,0,0,2.64-.14s0,0,0,0,0,0,0,0a2.3,2.3,0,0,1-1.3.41,8,8,0,0,1-1.38,0,17.53,17.53,0,0,1-2.69-.53,20.75,20.75,0,0,1-2.58-.91,5.32,5.32,0,0,1-2.26-1.53v0Z"/><path class="cls-21" d="M325.29,369.21a5.59,5.59,0,0,0,2.32,1.23c.84.27,1.7.52,2.57.73s1.74.38,2.62.52a8.16,8.16,0,0,0,2.65.11h0a6.59,6.59,0,0,1-2.69.1,22.15,22.15,0,0,1-2.66-.48,21.32,21.32,0,0,1-2.58-.79,5,5,0,0,1-2.27-1.43s0,0,0,0Z"/><path class="cls-9" d="M330.48,126.3c2.12,1.39,4.23,2.81,6.32,4.24s4.17,2.89,6.25,4.33l4,2.86,1.5-1.64c1.74-1.85,3.47-3.71,5.25-5.51a0,0,0,0,1,0,0,0,0,0,0,1,0,0c-1.61,2-3.28,3.88-4.94,5.79l-1.77,2-4.42-3.09c-2.06-1.47-4.14-2.92-6.18-4.43s-4.1-3-6.12-4.52c0,0,0-.05,0-.06S330.45,126.29,330.48,126.3Z"/><path class="cls-9" d="M353.71,164.22c1,.24,2.09.45,3.13.63s2.1.33,3.15.38a18.4,18.4,0,0,0,3.15,0,11.39,11.39,0,0,0,3.07-.7l0,0v0a8.2,8.2,0,0,1-3,1.12,14.15,14.15,0,0,1-3.25.1,18.93,18.93,0,0,1-3.19-.51,18.28,18.28,0,0,1-3.07-1s0,0,0,0S353.7,164.22,353.71,164.22Z"/></g><path class="cls-19" d="M393.08,370.2s-9.57-6.11-11.71-11.12,4.95-1.55,7.26-1.22-17-18.3-11.22-19,7.75,4.94,11.22,4.62-12.37-19.67-8.91-21.38,8.41,10.33,11.21,9.5-8.57-18.8-4.28-20.61,6.1,8.41,8.57,7.75,5.77-13.69,11.71-14-4.12,15.68-1.15,15.84,7.42-8.84,11.54-7.31-11.21,15.38-8.41,16.7,10.23-5.94,11.87-4.62-10.71,15.34-7.75,16.17,6.77-2.15,9.24-.83-14.68,10.23-11,13.85,10.22-.16,11.29,1.65-16.4,8.59-15.08,13.62Z"/><polygon class="cls-3" points="411.05 400.15 386.06 400.15 383.09 371.57 414.02 371.57 411.05 400.15"/><rect class="cls-3" x="380.01" y="368.86" width="37.09" height="5.41"/><path class="cls-15" d="M399.4,366.87c-.27-4.44-.42-8.89-.48-13.33s0-8.9.1-13.35.43-8.9.93-13.32c.27-2.21.6-4.42,1.07-6.6a24.26,24.26,0,0,1,2.12-6.32s0-.05.05,0,0,0,0,.06a26.09,26.09,0,0,0-1.86,6.36c-.4,2.18-.68,4.38-.91,6.59-.46,4.41-.67,8.85-.83,13.29s-.2,8.88-.23,13.32,0,8.89.12,13.33c0,.06,0,.1,0,.09S399.41,366.91,399.4,366.87Z"/><path class="cls-15" d="M413.71,374.29c-1.64,0-3.28.07-4.92.09s-3.28,0-4.92,0-3.28,0-4.92,0-3.27-.05-4.91-.11h0c1.64-.06,3.28-.08,4.91-.11s3.28,0,4.92,0,3.28,0,4.92,0,3.28,0,4.92.09l0,0Z"/><line class="cls-27" y1="400.52" x2="422.56" y2="400.52"/><path class="cls-28" d="M396.05,197.38l.42,1.3a.41.41,0,0,0,.39.28h1.35a.41.41,0,0,1,.24.74l-1.09.8a.38.38,0,0,0-.15.45l.42,1.29a.41.41,0,0,1-.63.46l-1.1-.8a.42.42,0,0,0-.48,0l-1.1.8a.41.41,0,0,1-.63-.46l.42-1.29a.38.38,0,0,0-.15-.45l-1.1-.8a.41.41,0,0,1,.24-.74h1.36a.41.41,0,0,0,.39-.28l.42-1.3A.41.41,0,0,1,396.05,197.38Z"/><path class="cls-29" d="M61.06,53.23l.83,2.54a.78.78,0,0,0,.76.56h2.68a.81.81,0,0,1,.47,1.46l-2.16,1.57a.82.82,0,0,0-.3.91l.83,2.54a.8.8,0,0,1-1.24.9l-2.17-1.57a.78.78,0,0,0-.94,0l-2.17,1.57a.8.8,0,0,1-1.24-.9l.83-2.54a.81.81,0,0,0-.3-.91l-2.16-1.57a.81.81,0,0,1,.47-1.46h2.68a.8.8,0,0,0,.77-.56l.82-2.54A.81.81,0,0,1,61.06,53.23Z"/><path class="cls-30" d="M48.41,248.86l.6,1.85a.59.59,0,0,0,.56.41h1.94a.58.58,0,0,1,.35,1l-1.58,1.15a.58.58,0,0,0-.21.65l.6,1.85a.58.58,0,0,1-.9.65l-1.57-1.14a.59.59,0,0,0-.69,0l-1.57,1.14a.58.58,0,0,1-.9-.65l.6-1.85a.57.57,0,0,0-.22-.65l-1.57-1.15a.58.58,0,0,1,.34-1h2a.6.6,0,0,0,.56-.41l.6-1.85A.58.58,0,0,1,48.41,248.86Z"/><path class="cls-30" d="M399.11,67.35l.6,1.85a.6.6,0,0,0,.56.41h1.94a.59.59,0,0,1,.35,1.06L401,71.81a.57.57,0,0,0-.22.65l.6,1.85a.59.59,0,0,1-.9.66l-1.57-1.15a.62.62,0,0,0-.69,0L396.64,75a.59.59,0,0,1-.9-.66l.6-1.85a.58.58,0,0,0-.21-.65l-1.58-1.14a.59.59,0,0,1,.35-1.06h1.94a.59.59,0,0,0,.56-.41l.6-1.85A.59.59,0,0,1,399.11,67.35Z"/><path class="cls-31" d="M72.54,35.74l.4,1.26a.41.41,0,0,0,.38.27h1.32a.4.4,0,0,1,.23.72l-1.06.77a.41.41,0,0,0-.15.45l.41,1.25a.39.39,0,0,1-.61.44l-1.07-.77a.39.39,0,0,0-.46,0l-1.07.77a.39.39,0,0,1-.61-.44l.41-1.25a.41.41,0,0,0-.15-.45L69.44,38a.4.4,0,0,1,.24-.72H71a.39.39,0,0,0,.37-.27l.41-1.26A.4.4,0,0,1,72.54,35.74Z"/><path class="cls-32" d="M409.54,155.44l.71,2.18a.69.69,0,0,0,.66.48h2.29a.69.69,0,0,1,.41,1.25l-1.86,1.35a.69.69,0,0,0-.25.77l.71,2.18a.69.69,0,0,1-1.06.77l-1.86-1.35a.71.71,0,0,0-.81,0l-1.86,1.35a.69.69,0,0,1-1.06-.77l.71-2.18a.69.69,0,0,0-.25-.77l-1.86-1.35a.69.69,0,0,1,.41-1.25h2.29a.69.69,0,0,0,.66-.48l.71-2.18A.69.69,0,0,1,409.54,155.44Z"/><path class="cls-32" d="M216.65,18.55l.71,2.18a.69.69,0,0,0,.66.47h2.29a.69.69,0,0,1,.41,1.25l-1.86,1.35a.7.7,0,0,0-.25.77l.71,2.19a.69.69,0,0,1-1.06.77l-1.86-1.35a.68.68,0,0,0-.81,0l-1.86,1.35a.69.69,0,0,1-1.06-.77l.71-2.19a.7.7,0,0,0-.25-.77l-1.86-1.35a.69.69,0,0,1,.41-1.25H214a.69.69,0,0,0,.66-.47l.71-2.18A.69.69,0,0,1,216.65,18.55Z"/><path class="cls-9" d="M322.54,160.27a29.79,29.79,0,0,0,11,3.53c.95.13,1.92.13,2.89.19a28,28,0,0,0,2.89-.17,29.5,29.5,0,0,0,5.69-1.17s0,0,0,0,0,0,0,0a22.19,22.19,0,0,1-5.66,1.6,26.27,26.27,0,0,1-2.94.23,24.36,24.36,0,0,1-3-.17,25.25,25.25,0,0,1-5.74-1.36,23.24,23.24,0,0,1-5.24-2.65.07.07,0,0,1,0-.06S322.53,160.26,322.54,160.27Z"/></g></g></g></svg>