<svg xmlns="http://www.w3.org/2000/svg" viewBox="0 0 607.21 570.04"><defs><style>.cls-1{fill:#e9e7e7;}</style></defs><g id="Layer_2" data-name="Layer 2"><g id="Layer_1-2" data-name="Layer 1"><path class="cls-1" d="M529.23,272.14c0,7.26-.05,14.53,0,21.8.1,10.3.41,20.6.41,30.91q.06,112.23,0,224.45c0,13.55-7.08,20.73-20.6,20.73H98.15c-13.52,0-20.6-7.18-20.6-20.73q0-122.22,0-244.45c0-9.47.31-18.93.42-28.4,0-1.44-.19-2.89-.39-5.53-2.2,1.89-3.68,3-5,4.35-.94.92-1.57,2.15-2.5,3.08q-19.2,19.26-38.46,38.46c-5.34,5.29-11.86,6.72-18.9,4.43C5.41,318.87,1.15,313.53.16,305.9c-.83-6.38,1.58-11.63,6.13-16.17q38.76-38.62,77.39-77.39L221.5,74.51,288.92,7.14c9.48-9.48,19.86-9.52,29.27-.11q27.22,27.21,54.45,54.4,113.06,113,226.14,226.07c5.73,5.72,9.87,11.69,8,20.27-3,13.53-19.77,19.54-29.86,10-13.07-12.32-25.33-25.5-38-38.26-2.66-2.68-5.52-5.16-8.29-7.73ZM492.72,532.7V304.64c0-22-.05-44,.06-66a10.1,10.1,0,0,0-3.23-7.89q-38.81-38.59-77.4-77.38c-21.93-22.06-43.7-44.29-65.66-66.32C335.35,75.87,323.94,65,312.66,53.92c-3-2.87-5.88-5.77-8.65-8.49-.81.33-1.19.37-1.4.58-15.09,14.78-30.24,29.49-45.2,44.38-9.77,9.72-19.16,19.8-28.89,29.55q-55.23,55.38-110.63,110.59a10.66,10.66,0,0,0-3.46,8.31c.13,21.29.07,42.59.07,63.89V532.51H221.76v-8q0-91.23,0-182.48c0-2.67-.06-5.34.08-8,.53-10.35,8.06-17.95,18.35-18q63.49-.15,127,0c9.85,0,17.36,7.3,18.17,17.1.23,2.82.12,5.66.12,8.5q0,92,0,184c0,2.26.19,4.52.3,7Zm-233.79-.14h89.31V353.42H258.93Z"/></g></g></svg>